<?xml version="1.0" standalone="no"?>
<!DOCTYPE svg PUBLIC "-//W3C//DTD SVG 1.1//EN" "http://www.w3.org/Graphics/SVG/1.1/DTD/svg11.dtd" >
<svg xmlns="http://www.w3.org/2000/svg">
  <metadata>Created by iconfont</metadata>
  <defs>
  <font id="iconfont" horiz-adv-x="1024">
    <font-face
      font-family="iconfont"
      font-weight="400"
      font-stretch="normal"
      units-per-em="1024"
      ascent="896"
      descent="-128"
    />
      <missing-glyph />
      
      <glyph glyph-name="kongjian1" unicode="&#65725;" d="M514.56 810.24c-232.0896 0-420.864-188.8256-420.864-420.864 0-232.0896 188.8256-420.864 420.864-420.864 232.0896 0 420.864 188.8256 420.864 420.864 0.0512 232.0384-188.7744 420.864-420.864 420.864z m0-800.8192c-209.5104 0-379.904 170.4448-379.904 379.904 0 209.5104 170.4448 379.904 379.904 379.904 209.5104 0 379.904-170.4448 379.904-379.904 0.0512-209.4592-170.3936-379.904-379.904-379.904zM779.6736 466.1248l-173.0048 26.4704-76.288 157.4912c-6.8096 14.08-26.8288 14.2336-33.8432 0.256L417.9456 493.9776l-173.3632-23.9104c-15.5136-2.1504-21.8112-21.0944-10.7008-32.1024l124.416-123.0848-30.8736-172.288c-2.7648-15.4112 13.312-27.2896 27.2384-20.0704l155.4944 80.2816 154.3168-82.5856c13.7728-7.3728 30.0544 4.2496 27.5456 19.6608l-22.4768 137.1648-277.2992-14.3872c-14.848-0.768-21.0944 18.688-8.5504 26.6752l194.1504 123.904-240.4352 34.816h312.6784c14.1312 0 19.9168-18.176 8.3968-26.3168l-173.9776-123.136 184.2176-16.64-5.0176 30.6176 126.208 121.2416c11.264 10.9056 5.2224 29.952-10.24 32.3072z"  horiz-adv-x="1024" />
      
      <glyph glyph-name="kongjian2" unicode="&#65728;" d="M204.732743 83.254471a425.984 425.984 0 1 1 602.421836 602.442864 425.984 425.984 0 1 1-602.421836-602.442864ZM386.1504 257.8432c-14.848-0.768-21.0944 18.688-8.5504 26.6752l194.1504 123.904-240.4352 34.816h312.6784c14.1312 0 19.9168-18.176 8.3968-26.3168l-173.9776-123.136 184.2176-16.64-5.0176 30.6688 126.208 121.2416c11.264 10.8544 5.2224 29.9008-10.24 32.256l-173.0048 26.4192-76.288 157.4912c-6.8096 14.08-26.8288 14.2336-33.8432 0.256L411.904 489.0624l-173.3632-23.9104c-15.5136-2.1504-21.8112-21.0944-10.7008-32.1024l124.416-123.0848-30.8736-172.288c-2.7648-15.4112 13.312-27.2896 27.2384-20.0704l155.4944 80.2816 154.3168-82.5856c13.7728-7.3728 30.0544 4.2496 27.5456 19.712l-22.4768 137.1648-277.3504-14.336z"  horiz-adv-x="1024" />
      
      <glyph glyph-name="skin" unicode="&#60281;" d="M870 770H663.8c-17.4 0-32.9-11.9-37-29.3C614.3 687.9 567 650 512 650s-102.3 37.9-114.8 90.7c-4.1 17.4-19.5 29.3-37 29.3H154c-24.3 0-44-19.7-44-44v-252c0-24.3 19.7-44 44-44h75v-388c0-24.3 19.7-44 44-44h478c24.3 0 44 19.7 44 44V430h75c24.3 0 44 19.7 44 44V726c0 24.3-19.7 44-44 44z m-28-268H723v-432H301V502H182V698h153.3c28.2-71.2 97.5-120 176.7-120s148.5 48.8 176.7 120H842v-196z"  horiz-adv-x="1024" />
      
      <glyph glyph-name="theme" unicode="&#58949;" d="M436.563072 464.762514H256.513231A213.602437 213.602437 0 0 0 58.348138 595.034797 209.585577 209.585577 0 0 0 95.36626 825.019721L102.769884 832.502107 109.937222 839.669446A209.585577 209.585577 0 0 0 338.583193 875.663662a216.122819 216.122819 0 0 0 130.744855-198.48014v-180.049842a33.867643 33.867643 0 0 0-9.687721-23.70735 32.764976 32.764976 0 0 0-23.077255-8.663816zM587.392226 464.526228a31.662308 31.662308 0 0 0-23.471064 10.081531 32.764976 32.764976 0 0 0-10.081531 23.786112V678.443713A216.122819 216.122819 0 0 0 684.269438 877.002615a209.585577 209.585577 0 0 0 228.645971-35.994216l7.561148-7.2461 7.2461-7.561148a209.585577 209.585577 0 0 0 37.805741-228.724733 216.044057 216.044057 0 0 0-197.377472-131.059903H588.101084l-0.78762-1.811525zM252.338847-50.025659a208.561671 208.561671 0 0 0-149.490201 63.324616l-7.167339 7.2461a209.585577 209.585577 0 0 0-37.805741 228.645972 216.122819 216.122819 0 0 0 198.086331 130.744854h180.049841c8.82134-0.157524 17.327631-3.62305 23.786113-9.687721 6.064671-6.458481 9.451435-14.964772 9.687721-23.786112v-180.049842a216.122819 216.122819 0 0 0-130.744855-198.08633c-27.251638-12.05058-56.708612-18.272775-86.40187-18.430299zM771.065118-50.025659a218.721964 218.721964 0 0 0-86.79568 18.272775A213.523675 213.523675 0 0 0 553.760869 166.49097V346.46205a33.080023 33.080023 0 0 0 10.081531 23.786112 33.867643 33.867643 0 0 0 23.786112 9.687721h180.128604a216.122819 216.122819 0 0 0 198.48014-130.744854 209.664339 209.664339 0 0 0-37.884503-228.645972l-7.167338-7.2461-7.561148-7.167338c-38.672123-36.230502-89.709873-56.314802-142.637911-56.23604z"  horiz-adv-x="1024" />
      
      <glyph glyph-name="diquguanli" unicode="&#58962;" d="M819.264 148.16a30.144 30.144 0 0 0 38.208 17.28c64.384-22.336 102.528-51.712 102.528-91.968C960-12.544 761.728-64 512-64s-448 51.456-448 137.472c0 40.064 37.632 69.248 101.184 91.52a30.144 30.144 0 0 0 37.952-17.408 28.672 28.672 0 0 0-17.6-36.864c-41.792-14.72-61.824-30.272-61.824-37.248 0-33.92 176.256-79.68 388.288-79.68s388.288 45.76 388.288 79.68c0 7.104-20.48 22.912-63.04 37.696a29.504 29.504 0 0 0-16.896 14.848 28.032 28.032 0 0 0-1.088 22.144zM512 832c164.928 0 298.688-129.408 298.688-289.024 0-106.368-99.584-260.608-298.688-462.464-199.04 201.856-298.688 356.096-298.688 462.464C213.312 702.592 347.072 832 512 832z m0-57.792c-131.968 0-238.912-103.552-238.912-231.232 0-77.056 73.6-199.552 222.72-360.448l16.192-17.28 16.256 17.28c149.12 160.896 222.72 283.392 222.72 360.448 0 127.68-107.008 231.232-238.976 231.232zM512 658.56c65.92 0 119.488-51.712 119.488-115.584S577.92 427.328 512 427.328c-65.92 0-119.488 51.84-119.488 115.648 0 63.872 53.504 115.584 119.488 115.584z m0-57.792c-32.96 0-59.712-25.856-59.712-57.792s26.752-57.792 59.712-57.792c32.96 0 59.712 25.856 59.712 57.792S544.96 600.768 512 600.768z"  horiz-adv-x="1024" />
      
      <glyph glyph-name="qunliaoguanli" unicode="&#59077;" d="M766.65409 376.835254a253.118102 253.118102 0 0 0 252.350107-252.350108 252.414107 252.414107 0 1 0-252.350107 252.350108zM486.528191 895.99936a252.158109 252.158109 0 0 0 97.34327-484.796364c11.455914-3.199976 22.71983-6.847949 33.791747-11.071917l15.807881-6.463952-13.567898-6.847948a296.701775 296.701775 0 0 1-148.286888-191.358565l-3.327975-15.487884a296.701775 296.701775 0 0 1 66.175504-247.678142l10.62392-11.839911H220.802184a104.575216 104.575216 0 0 0-104.191219 95.231285l-0.383997 8.959933v23.679823a378.429162 378.429162 0 0 0 101.119242 258.174063l12.543906 12.863904L228.994123 320.00368l17.727867 14.847889 3.839971 3.263975 5.759957 4.799964 5.631957 4.351967 5.119962 3.839972 0.831994 0.639995 6.335952 4.607965 4.799964 3.455974 4.927963 3.263976 2.175984 1.471989a366.973248 366.973248 0 0 0 102.975228 46.719649A252.158109 252.158109 0 0 0 486.528191 895.99936z m235.902231-638.907208a29.759777 29.759777 0 0 1-8.383937-1.279991c-6.847949-2.495981-12.799904-5.503959-18.559861-8.959932-5.887956-3.199976-11.519914-6.975948-16.831874-11.135917a28.927783 28.927783 0 0 1-8.319938-28.159789l1.279991-4.223968a30.399772 30.399772 0 0 0-20.671845-36.159729l-4.223968-1.023992a28.799784 28.799784 0 0 1-20.287848-20.095849 186.750599 186.750599 0 0 1 0-40.831694c2.239983-10.68792 10.367922-19.199856 20.863843-21.951836l3.647973-0.831993a29.759777 29.759777 0 0 0 17.471869-13.887896c3.903971-6.783949 5.119962-14.71989 3.327975-22.399832l-1.27999-3.96797c-2.559981-10.239923 0.639995-20.991843 8.319937-28.159789l0.447997-0.511996c5.31196-4.159969 10.879918-7.807941 16.831874-11.007918 5.759957-3.455974 11.711912-6.463952 17.919865-8.959933a29.183781 29.183781 0 0 1 29.631778 7.039948l2.495981 2.751979a30.399772 30.399772 0 0 0 41.40769 0l2.55998-2.68798a29.119782 29.119782 0 0 1 28.991783-7.359945c6.71995 2.559981 12.799904 5.567958 18.559861 9.087932 5.823956 3.199976 11.519914 6.911948 16.767874 11.007918a28.351787 28.351787 0 0 1 8.703935 28.159788l-1.279991 4.287968a30.271773 30.271773 0 0 0 20.735845 35.711732l4.095969 0.959993a29.055782 29.055782 0 0 1 20.287848 21.31184c0.639995 7.231946 0.767994 13.951895 0.255998 20.607846v6.399952l-1.151991 14.335892a28.799784 28.799784 0 0 1-20.287848 21.183841l-4.095969 0.959993a30.207773 30.207773 0 0 0-20.543846 35.583733l1.27999 3.967971a29.439779 29.439779 0 0 1-8.319938 28.543786 115.839131 115.839131 0 0 1-17.087871 11.327915c-5.631958 3.391975-11.519914 6.399952-17.471869 8.959932h-1.215991a28.735784 28.735784 0 0 1-28.607786-6.911948l-2.815979-3.071977a30.463772 30.463772 0 0 0-41.27969 0l-3.007977 3.199976a28.735784 28.735784 0 0 1-20.159849 8.191939zM215.042227 341.507519l-35.327735-35.199736a401.404989 401.404989 0 0 1-102.143234-249.40613l-0.447996-18.559861v-20.479846h-11.583914a60.991543 60.991543 0 0 0-60.607545 53.887596l-0.383997 7.103947v16.575875c0 67.711492 27.391795 132.351007 75.519433 179.390655l10.68792 9.791926 2.047985 1.663988 0.831994 0.703995c2.559981 2.047985 4.991963 3.96797 7.487944 5.823956l1.919985 1.535988 1.983985 1.471989 4.159969 3.007978 3.199976 2.303983 3.199976 2.175983 1.535989 0.959993a241.022192 241.022192 0 0 0 97.919265 37.247721z m551.547864-176.958673a40.0637 40.0637 0 1 0 0-80.0634 40.0637 40.0637 0 0 0 0 80.0634z m-568.891734 497.27627c-0.639995-5.887956-0.639995-11.903911-0.639995-18.047864a273.213951 273.213951 0 0 1 131.583013-233.214251c-18.62386-7.295945-36.735724-15.99988-54.015595-26.111804l-16.959872-10.559921-2.303983-1.471989-10.431922-7.487944-6.65595-4.799964-0.831994-0.639995-5.567958-4.223969c-3.327975-2.68798-7.039947-5.503959-10.815919-8.703934a163.006777 163.006777 0 0 0-23.359825 315.325635z"  horiz-adv-x="1024" />
      
      <glyph glyph-name="man" unicode="&#59362;" d="M874 776H622c-3.3 0-6-2.7-6-6v-56c0-3.3 2.7-6 6-6h160.4L583.1 508.7c-50 38.5-111 59.3-175.1 59.3-76.9 0-149.3-30-203.6-84.4S120 356.9 120 280s30-149.3 84.4-203.6C258.7 22 331.1-8 408-8s149.3 30 203.6 84.4C666 130.7 696 203.1 696 280c0 64.1-20.8 124.9-59.2 174.9L836 654.1V494c0-3.3 2.7-6 6-6h56c3.3 0 6 2.7 6 6V746c0 16.5-13.5 30-30 30zM408 68c-116.9 0-212 95.1-212 212s95.1 212 212 212 212-95.1 212-212-95.1-212-212-212z"  horiz-adv-x="1024" />
      
      <glyph glyph-name="woman" unicode="&#59633;" d="M712.8 347.2c53.6 53.6 83.2 125 83.2 200.8 0 75.9-29.5 147.2-83.2 200.8C659.2 802.4 587.8 832 512 832s-147.2-29.5-200.8-83.2C257.6 695.1 228 623.9 228 548c0-63.8 20.9-124.4 59.4-173.9 7.3-9.4 15.2-18.3 23.7-26.9 8.5-8.5 17.5-16.4 26.8-23.7 39.6-30.8 86.3-50.4 136.1-57V160H360c-4.4 0-8-3.6-8-8v-60c0-4.4 3.6-8 8-8h114v-140c0-4.4 3.6-8 8-8h60c4.4 0 8 3.6 8 8V84h114c4.4 0 8 3.6 8 8v60c0 4.4-3.6 8-8 8H550V266.5c61.5 8.2 118.2 36.1 162.8 80.7zM512 340c-55.6 0-107.7 21.6-147.1 60.9C325.6 440.2 304 492.4 304 548s21.6 107.7 60.9 147.1C404.2 734.5 456.4 756 512 756s107.7-21.6 147.1-60.9C698.4 655.8 720 603.6 720 548s-21.6-107.7-60.9-147.1C619.7 361.6 567.6 340 512 340z"  horiz-adv-x="1024" />
      
      <glyph glyph-name="diannao" unicode="&#58888;" d="M512.1 383.6m-448 0a448 448 0 1 1 896 0 448 448 0 1 1-896 0ZM739.3 273.2H284.8c-15.3 0-27.8 12.5-27.8 27.8V566.4c0 15.3 12.5 27.8 27.8 27.8h454.5c15.3 0 27.8-12.5 27.8-27.8V301c0-15.3-12.5-27.8-27.8-27.8zM840.6 183.7h-657c-4.1 0-6.2 5-3.3 7.9l70.9 72.2c0.9 0.9 2.1 1.4 3.3 1.4h506.3c1.2 0 2.3-0.4 3.1-1.2l79.7-72.2c3.2-2.9 1.2-8.1-3-8.1zM840.6 183.7h-657c-4.1 0-6.2-0.6-3.3-1l70.9-9.4c0.9-0.1 2.1-0.2 3.3-0.2h506.3c1.2 0 2.3 0.1 3.1 0.2l79.7 9.4c3.2 0.3 1.2 1-3 1zM638.9 261.2h-46.7c-4.4 0-8 3.6-8 8s3.6 8 8 8h46.7c4.4 0 8-3.6 8-8s-3.6-8-8-8zM431.9 261.2h-46.7c-4.4 0-8 3.6-8 8s3.6 8 8 8h46.7c4.4 0 8-3.6 8-8s-3.6-8-8-8zM763.1 222.9h-502l40 28.2h422zM597.1 193h-170c-6 0-9.4 7-5.6 11.7l8.4 10.4c1.4 1.7 3.4 2.6 5.6 2.6h153.2c2.2 0 4.2-1 5.6-2.6l8.4-10.4c3.7-4.7 0.4-11.7-5.6-11.7zM731.1 292h-438c-8.2 0-14.8 6.7-14.8 14.8V560.5c0 8.2 6.7 14.8 14.8 14.8h438c8.2 0 14.8-6.7 14.8-14.8v-253.6c0-8.2-6.6-14.9-14.8-14.9z"  horiz-adv-x="1024" />
      
      <glyph glyph-name="hongxin1" unicode="&#58880;" d="M512.791016 651.06194C483.006665 697.103556 413.928381 783.983275 317.474608 783.983275c-138.414443 0-250.997568-124.694977-250.997568-278.017968 0-71.681576 48.643883-174.431751 107.666138-228.217748 81.641415-104.903212 311.144436-293.729811 339.481831-293.729811 28.852118 0 253.439176 185.163163 336.558246 292.476261 60.050678 54.68446 108.919688 157.596318 108.919688 229.470275 0 153.322991-112.582101 278.017968-250.997568 278.017968C611.653651 783.983275 542.575366 697.103556 512.791016 651.06194L512.791016 651.06194zM539.522844 577.870987c34.764781 73.127508 100.373035 146.929374 168.58458 146.929374 105.770975 0 191.814654-98.156554 191.814654-218.835054 0-57.351196-41.575908-142.912897-90.766236-186.8025-1.349741-1.220804-2.570545-2.537799-3.791349-4.048199-73.15923-95.329159-220.409922-213.469859-291.576775-265.295202-52.885488 38.71679-212.216309 159.363568-294.019407 265.680988-1.092891 1.445932-2.37714 2.827395-3.726881 4.080945-48.997947 43.825135-90.38045 129.161708-90.38045 186.383968 0 120.679523 86.043678 218.835054 191.814654 218.835054 68.178799 0 133.819798-73.801866 168.616302-146.929374 4.626367-9.702989 14.84408-15.711843 26.700105-15.711843C524.647041 562.159144 534.896476 568.167998 539.522844 577.870987L539.522844 577.870987z"  horiz-adv-x="1024" />
      
      <glyph glyph-name="email" unicode="&#58918;" d="M1013.443299 378.721649c0-280.808247-225.913402-506.721649-506.72165-506.721649S0 97.913402 0 378.721649 225.913402 885.443299 506.721649 885.443299s506.721649-225.913402 506.72165-506.72165M263.917526 199.257732l225.913402 219.579381c8.445361 8.445361 23.224742 8.445361 33.781443 0L749.525773 199.257732h-485.608247M263.917526 188.701031c-2.11134 0-6.334021 2.11134-8.445361 4.22268 0 2.11134-2.11134 4.22268-2.11134 6.334021 0 4.22268 2.11134 6.334021 4.22268 8.445361l225.913402 219.579381c14.779381 12.668041 35.892784 12.668041 48.560825 0l244.915464-238.581443H263.917526c2.11134 0 2.11134 0 0 0z m29.558763 23.224742h426.490721L515.16701 410.391753c-4.22268 4.22268-12.668041 4.22268-16.890721 0l-204.8-198.46598zM263.917526 547.628866h483.496907c6.334021 0 10.556701-4.22268 10.556701-10.556701v-337.814433c0-6.334021-4.22268-10.556701-10.556701-10.556701H263.917526c-6.334021 0-10.556701 4.22268-10.556701 10.556701V537.072165c0 6.334021 4.22268 10.556701 10.556701 10.556701zM749.525773 178.14433h-485.608247c-12.668041 0-23.224742 10.556701-23.224742 23.224742V537.072165c0 12.668041 10.556701 23.224742 23.224742 23.224742h483.496907c12.668041 0 23.224742-10.556701 23.224742-23.224742v-337.814433c0-12.668041-8.445361-21.113402-21.113402-21.113402z m-485.608247 358.927835v-335.703093h483.496907V537.072165H263.917526z m0 10.556701v-10.556701 10.556701zM506.721649 298.490722c-8.445361 0-16.890722 4.22268-25.336082 10.556701L236.470103 547.628866h540.503093L532.057732 309.047423c-8.445361-6.334021-16.890722-10.556701-25.336083-10.556701z m16.890722 19.002062z m-230.136082 206.91134l204.8-200.57732c4.22268-4.22268 12.668041-4.22268 16.890721 0l204.8 200.57732H293.476289z"  horiz-adv-x="1024" />
      
      <glyph glyph-name="QQ" unicode="&#58984;" d="M511.09761-61.257c-80.159 0-153.737 25.019-201.11 62.386-24.057-6.702-54.831-17.489-74.252-30.864-16.617-11.439-14.546-23.106-11.55-27.816 13.15-20.689 225.583-13.211 286.912-6.767v3.061zM496.65061-61.257c80.157 0 153.737 25.019 201.11 62.386 24.057-6.702 54.83-17.489 74.253-30.864 16.616-11.439 14.543-23.106 11.55-27.816-13.15-20.689-225.584-13.211-286.914-6.767v3.061zM497.12861 421.476c131.934 0.876 237.669 25.783 273.497 35.34 8.541 2.28 13.11 6.364 13.11 6.364 0.03 1.172 0.542 20.952 0.542 31.155C784.27761 666.167 701.12561 838.827 496.64061 838.838 292.15661 838.827 209.00061 666.168 209.00061 494.335c0-10.203 0.516-29.983 0.547-31.155 0 0 3.717-3.821 10.529-5.67 33.078-8.98 140.803-35.139 276.08-36.034h0.972zM860.28261 276.218c-8.12 26.086-19.204 56.506-30.427 85.72 0 0-6.456 0.795-9.718-0.148-100.71-29.205-222.773-47.818-315.792-46.695h-0.962C410.88561 313.983 289.65061 332.383 189.27961 361.302 185.44461 362.405 177.87261 361.937 177.87261 361.937 166.64961 332.724 155.56661 302.304 147.44761 276.218 108.72961 151.832 121.27261 100.356 130.82461 99.202c20.496-2.474 79.78 93.637 79.78 93.637 0-97.66 88.324-247.617 290.576-248.996a718.01 718.01 0 0 0 5.367 0C708.80161-54.778 797.12261 95.178 797.12261 192.838c0 0 59.284-96.111 79.783-93.637 9.55 1.154 22.093 52.63-16.623 177.017M434.38261 579.083c-27.9-1.24-51.745 30.106-53.24 69.956-1.518 39.877 19.858 73.207 47.764 74.454 27.875 1.224 51.703-30.109 53.218-69.974 1.527-39.877-19.853-73.2-47.742-74.436m206.67 69.956c-1.494-39.85-25.34-71.194-53.24-69.956-27.888 1.238-49.269 34.559-47.742 74.435 1.513 39.868 25.341 71.201 53.216 69.974 27.909-1.247 49.285-34.576 47.767-74.453M683.94261 527.373c-7.323 17.609-81.062 37.227-172.353 37.227h-0.98c-91.29 0-165.031-19.618-172.352-37.227a6.244 6.244 0 0 1-0.535-2.505c0-1.269 0.393-2.414 1.006-3.386 6.168-9.765 88.054-58.018 171.882-58.018h0.98c83.827 0 165.71 48.25 171.881 58.016a6.352 6.352 0 0 1 1.002 3.395c0 0.897-0.2 1.736-0.531 2.498M467.63161 639.623c1.26-15.886-7.377-30-19.266-31.542-11.907-1.544-22.569 10.083-23.836 25.978-1.243 15.895 7.381 30.008 19.25 31.538 11.927 1.549 22.607-10.088 23.852-25.974m73.097-7.935c2.533 4.118 19.827 25.77 55.62 17.886 9.401-2.07 13.75-5.116 14.668-6.316 1.355-1.77 1.726-4.29 0.352-7.684-2.722-6.725-8.338-6.542-11.454-5.226-2.01 0.85-26.94 15.889-49.905-6.553-1.579-1.545-4.405-2.074-7.085-0.242-2.678 1.834-3.786 5.553-2.196 8.135M504.33261 311.505h-0.967c-63.568-0.752-140.646 7.504-215.286 21.92-6.391-36.262-10.25-81.838-6.936-136.196 8.37-137.384 91.62-223.736 220.118-224.996H506.48461c128.498 1.26 211.748 87.612 220.12 224.996 3.314 54.362-0.547 99.938-6.94 136.203-74.654-14.423-151.745-22.684-215.332-21.927M323.27461 318.984v-137.468s64.957-12.705 130.031-3.91V304.41c-41.225 2.262-85.688 7.304-130.031 14.574M788.09761 463.464s-121.98-40.387-283.743-41.539h-0.962c-161.497 1.147-283.328 41.401-283.744 41.539l-40.854-106.952c102.186-32.31 228.837-53.135 324.598-51.926l0.96 0.002c95.768-1.216 222.4 19.61 324.6 51.924l-40.855 106.952z"  horiz-adv-x="1024" />
      
      <glyph glyph-name="person" unicode="&#59009;" d="M451.584 328.704c103.168 0 186.624 88.832 186.624 198.4 0 109.568-83.456 198.4-186.624 198.4-102.912 0-186.624-88.832-186.624-198.4C265.216 417.536 348.672 328.704 451.584 328.704zM731.904 622.592l214.272 0c5.632 0 10.24 4.608 10.24 10.24l0 51.712c0 5.632-4.608 10.24-10.24 10.24l-214.272 0c-5.632 0-10.24-4.608-10.24-10.24l0-51.712C721.664 627.2 726.272 622.592 731.904 622.592zM731.904 479.744l248.32 0c5.632 0 10.24 4.608 10.24 10.24l0 51.712c0 5.632-4.608 10.24-10.24 10.24l-248.32 0c-5.632 0-10.24-4.608-10.24-10.24l0-51.712C721.664 484.352 726.272 479.744 731.904 479.744zM1013.76 408.832 731.904 408.832c-5.632 0-10.24-4.608-10.24-10.24l0-51.712c0-5.632 4.608-10.24 10.24-10.24L1013.76 336.64c5.632 0 10.24 4.608 10.24 10.24l0 51.712C1024 404.224 1019.392 408.832 1013.76 408.832zM454.656 287.488c-315.392 0-374.528-191.488-374.528-191.488-1.536-17.664-2.56-35.584-3.328-53.76l749.824 0c-0.768 17.92-2.048 35.84-3.328 53.76C823.04 96 770.048 287.488 454.656 287.488z"  horiz-adv-x="1024" />
      
      <glyph glyph-name="music" unicode="&#59032;" d="M513 384.2m-497 0a497 497 0 1 1 994 0 497 497 0 1 1-994 0ZM513 719.4c-185.1 0-335.2-150.1-335.2-335.2S327.9 49 513 49s335.2 150.1 335.2 335.2S698.1 719.4 513 719.4z m0-377.7c-23.5 0-42.5 19-42.5 42.5s19 42.5 42.5 42.5 42.5-19 42.5-42.5-19-42.5-42.5-42.5zM513 41.4c-91.6 0-177.7 35.7-242.4 100.4-64.8 64.8-100.4 150.9-100.4 242.4 0 91.6 35.7 177.7 100.4 242.4S421.4 727 513 727s177.7-35.7 242.4-100.4c64.8-64.8 100.4-150.9 100.4-242.4 0-91.6-35.7-177.7-100.4-242.4C690.7 77 604.6 41.4 513 41.4z m0 670.3c-87.5 0-169.7-34.1-231.6-95.9-61.9-61.9-95.9-144.1-95.9-231.6s34.1-169.7 95.9-231.6c61.9-61.9 144.1-95.9 231.6-95.9s169.7 34.1 231.6 95.9c61.9 61.9 95.9 144.1 95.9 231.6s-34.1 169.7-95.9 231.6c-61.9 61.9-144.1 95.9-231.6 95.9z m0-377.7c-27.7 0-50.2 22.5-50.2 50.2 0 27.7 22.5 50.2 50.2 50.2 27.7 0 50.2-22.5 50.2-50.2 0-27.7-22.5-50.2-50.2-50.2z m0 85.1c-19.2 0-34.9-15.7-34.9-34.9s15.7-34.9 34.9-34.9 34.9 15.7 34.9 34.9-15.7 34.9-34.9 34.9zM513 512.2c-70.7 0-128-57.3-128-128s57.3-128 128-128 128 57.3 128 128-57.3 128-128 128z m0-170.5c-23.5 0-42.5 19-42.5 42.5s19 42.5 42.5 42.5 42.5-19 42.5-42.5-19-42.5-42.5-42.5zM513 248.6c-74.8 0-135.6 60.8-135.6 135.6S438.2 519.8 513 519.8 648.6 459 648.6 384.2 587.8 248.6 513 248.6z m0 255.9c-66.3 0-120.3-54-120.3-120.3s54-120.3 120.3-120.3 120.3 54 120.3 120.3-54 120.3-120.3 120.3z m0-170.5c-27.7 0-50.2 22.5-50.2 50.2s22.5 50.2 50.2 50.2c27.7 0 50.2-22.5 50.2-50.2S540.7 334 513 334z m0 85.1c-19.2 0-34.9-15.7-34.9-34.9s15.7-34.9 34.9-34.9 34.9 15.7 34.9 34.9-15.7 34.9-34.9 34.9zM789.1 481.2c-3.2 0-6.1 2-7.2 5.1-13.7 38.6-35.4 73-64.6 102.2-29.2 29.2-63.6 50.9-102.2 64.6-4 1.4-6.1 5.8-4.7 9.8s5.8 6.1 9.8 4.7c40.8-14.4 77.1-37.4 107.9-68.2 30.8-30.8 53.8-67.1 68.2-107.9 1.4-4-0.7-8.4-4.7-9.8-0.8-0.3-1.6-0.5-2.5-0.5zM739.2 472c-3.1 0-5.9 1.8-7.1 4.9-11.3 28.7-28.1 54.4-50.1 76.4-22 22-47.7 38.9-76.4 50.1-3.9 1.5-5.9 6-4.3 9.9 1.5 3.9 6 5.9 9.9 4.3 30.7-12.1 58.1-30.1 81.6-53.6 23.5-23.5 41.5-50.9 53.6-81.6 1.5-3.9-0.4-8.4-4.3-9.9-1-0.4-1.9-0.5-2.9-0.5zM695.4 463.8c-2.9 0-5.7 1.7-7 4.5-9 20.1-21.5 38.3-37.3 54.1-15.7 15.7-33.9 28.3-54.1 37.3-3.9 1.7-5.6 6.2-3.9 10.1 1.7 3.9 6.2 5.6 10.1 3.9 21.9-9.7 41.6-23.3 58.6-40.4 17.1-17.1 30.7-36.8 40.4-58.6 1.7-3.9 0-8.4-3.9-10.1-0.8-0.6-1.8-0.8-2.9-0.8zM408.3 100.4c-0.8 0-1.7 0.1-2.6 0.4-40.8 14.4-77.1 37.4-107.9 68.2-30.8 30.8-53.8 67.1-68.2 107.9-1.4 4 0.7 8.4 4.7 9.8 4 1.4 8.4-0.7 9.8-4.7 13.7-38.6 35.4-73 64.6-102.2 29.2-29.2 63.6-50.9 102.2-64.6 4-1.4 6.1-5.8 4.7-9.8-1.2-3-4.1-5-7.3-5zM417.6 150.3c-0.9 0-1.9 0.2-2.8 0.5-30.7 12.1-58.1 30.1-81.6 53.6-23.5 23.5-41.5 50.9-53.6 81.6-1.5 3.9 0.4 8.4 4.3 9.9s8.4-0.4 9.9-4.3c11.3-28.7 28.1-54.4 50.1-76.4s47.7-38.9 76.4-50.1c3.9-1.5 5.9-6 4.3-9.9-1.1-3.1-4-4.9-7-4.9zM425.8 194.1c-1 0-2.1 0.2-3.1 0.7-21.8 9.7-41.6 23.3-58.6 40.4-17.1 17.1-30.7 36.8-40.4 58.7-1.7 3.9 0 8.4 3.9 10.1 3.9 1.7 8.4 0 10.1-3.9 9-20.1 21.5-38.3 37.3-54.1 15.7-15.7 33.9-28.3 54.1-37.3 3.9-1.7 5.6-6.2 3.9-10.1-1.5-2.8-4.3-4.5-7.2-4.5z"  horiz-adv-x="1024" />
      
      <glyph glyph-name="Music" unicode="&#59508;" d="M512 384m-512 0a512 512 0 1 1 1024 0 512 512 0 1 1-1024 0ZM727.04 491.32544v-251.83232c-0.256-3.9936 0-8.04864 0-12.17536 0-53.78048-43.8272-97.3824-97.90464-97.3824-54.0672 0-97.90464 43.60192-97.90464 97.3824 0 53.79072 43.8272 97.39264 97.90464 97.39264 17.82784 0 34.54976-4.74112 48.9472-13.02528V464.2304l-256.99328-48.20992v-188.70272c-0.256-3.98336 0-8.04864 0-12.16512 0-53.79072-43.8272-97.39264-97.90464-97.39264C269.11744 117.76 225.28 161.36192 225.28 215.1424c0 53.79072 43.8272 97.39264 97.90464 97.39264 17.82784 0 34.54976-4.74112 48.9472-13.02528V532.92032c0 26.89024 21.53472 52.72576 48.05632 57.69216l258.80576 48.54784C705.52576 644.13696 727.04 626.39104 727.04 599.49056v-108.16512z"  horiz-adv-x="1024" />
      
      <glyph glyph-name="zhinengduihua" unicode="&#58887;" d="M221.906824 288.647529L30.117647 96.858353V896h799.141647v-607.352471z m159.804235 383.578353H221.906824v-159.804235h159.804235z m255.698823 0H477.605647v-159.804235h159.804235zM867.870118 195.584v452.969412h126.07247V-128l-196.005647 194.138353H269.131294v129.445647z"  horiz-adv-x="1024" />
      
      <glyph glyph-name="AIzhushou" unicode="&#58901;" d="M362.872073 668.770611h285.47386c187.474908 0 340.864834-153.388925 340.864834-340.864834v-340.863833c0-63.911969-51.129975-115.041944-115.041944-115.041944h-737.11964c-63.911969 0-115.041944 51.129975-115.041944 115.041944V327.905777c0 187.475908 153.389925 340.864834 340.864834 340.864834zM418.262046 553.729667h170.432917c157.649923 0 285.473861-127.824938 285.47386-285.47486v-170.431917c0-63.911969-51.129975-115.041944-115.041944-115.041944H247.830129c-63.911969 0-115.041944 51.129975-115.041944 115.041944V268.254807c4.259998 157.649923 132.084936 285.473861 285.473861 285.47386zM371.393069 174.516852c12.782994 8.521996 29.825985 8.521996 38.347981 0 21.30399-25.563988 51.129975-34.085983 85.215958-34.085983s59.650971 12.781994 80.954961 34.085983c8.521996 12.782994 29.825985 12.782994 38.346981 4.260998 12.782994-8.520996 12.782994-29.824985 4.260998-38.346981-29.824985-38.346981-72.433965-55.389973-123.56294-55.389973s-93.737954 17.042992-127.823937 55.389973c-8.521996 4.259998-8.521996 21.30399 4.259998 34.085983zM350.090079 417.382734c-42.608979 0-76.694963-34.085983-76.694962-76.693963s34.085983-76.694963 76.693962-76.694962 76.694963 34.086983 76.694963 76.694962-34.086983 76.693963-76.694963 76.693963zM350.090079 383.29675c25.563988 0 42.606979-17.042992 42.606979-42.607979s-17.042992-42.607979-42.607979-42.607979-42.607979 17.042992-42.607979 42.607979 17.042992 42.607979 42.607979 42.607979zM661.127927 417.382734c-42.607979 0-76.693963-34.085983-76.693962-76.693963s34.085983-76.694963 76.693962-76.694962 76.694963 34.086983 76.694963 76.694962-34.086983 76.693963-76.694963 76.693963zM661.127927 383.29675c25.564988 0 42.607979-17.042992 42.607979-42.607979s-17.042992-42.607979-42.607979-42.607979-42.607979 17.042992-42.607979 42.607979 17.042992 42.607979 42.607979 42.607979zM247.830129 780.957556h55.389973v-170.431917h-55.389973z m455.905777 0h55.389973v-170.431917h-55.389973zM192.439156 810.783542a85.215958 85.215958 0 1 1 170.432917 0 85.215958 85.215958 0 1 1-170.432917 0zM648.345933 810.783542a85.215958 85.215958 0 1 1 170.431917 0 85.215958 85.215958 0 1 1-170.431917 0z"  horiz-adv-x="1024" />
      
      <glyph glyph-name="deepseek" unicode="&#58883;" d="M980.736 723.473c-8.79 4.396-12.585-3.983-17.72-8.241-1.75-1.374-3.244-3.16-4.738-4.808-12.844-14.01-27.85-23.214-47.476-22.115-28.674 1.648-53.159-7.555-74.794-29.945-4.601 27.61-19.883 44.093-43.148 54.67-12.191 5.494-24.485 10.989-33.019 22.94-5.94 8.516-7.555 17.994-10.542 27.334-1.889 5.632-3.778 11.401-10.13 12.363-6.92 1.099-9.616-4.808-12.329-9.753-10.817-20.192-15.024-42.445-14.595-64.972 0.928-50.687 21.91-91.071 63.565-119.78 4.739-3.296 5.958-6.593 4.464-11.4-2.833-9.89-6.233-19.506-9.203-29.396-1.89-6.319-4.722-7.692-11.367-4.945-22.854 9.753-42.6 24.176-60.062 41.62-29.618 29.259-56.404 61.539-89.8 86.813a394.916 394.916 0 0 1-23.815 16.621c-34.083 33.791 4.464 61.538 13.393 64.835 9.323 3.434 3.245 15.247-26.923 15.11s-57.761-10.44-92.926-24.176c-5.15-2.06-10.56-3.571-16.088-4.808-31.937 6.182-65.075 7.555-99.708 3.572-65.195-7.418-117.273-38.874-155.562-92.582-45.982-64.56-56.817-137.912-43.544-214.422 13.908-80.632 54.24-147.39 116.191-199.587 64.251-54.12 138.238-80.632 222.647-75.55 51.27 3.023 108.344 10.028 172.732 65.66 16.243-8.242 33.293-11.539 61.556-14.011 21.789-2.06 42.754 1.099 58.98 4.533 25.429 5.494 23.66 29.533 14.474 33.928-74.536 35.44-58.173 21.017-73.042 32.692 37.877 45.742 94.951 93.27 117.273 247.252 1.768 12.225 0.274 19.917 0 29.807-0.138 6.044 1.201 8.38 7.984 9.066 18.664 2.198 36.796 7.418 53.434 16.758 48.282 26.923 67.77 71.154 72.372 124.176 0.687 8.104-0.137 16.483-8.534 20.741M559.911 246.278c-72.218 57.967-107.263 77.06-121.737 76.236-13.53-0.824-11.092-16.621-8.122-26.923 3.108-10.165 7.177-17.17 12.86-26.099 3.916-5.907 6.629-14.698-3.931-21.291-23.266-14.698-63.702 4.945-65.59 5.906-47.081 28.297-86.453 65.66-114.183 116.758-26.785 49.176-42.324 101.923-44.9 158.241-0.687 13.599 3.245 18.407 16.484 20.88a159.683 159.683 0 0 0 52.901 1.373c73.73-10.99 136.504-44.643 189.113-97.94 30.031-30.356 52.747-66.62 76.167-102.06 24.88-37.636 51.666-73.488 85.749-102.883 12.036-10.302 21.634-18.132 30.837-23.901-27.73-3.16-74.003-3.846-105.648 21.703m34.632 227.334c0 6.044 4.74 10.852 10.697 10.852q2.026-0.035 3.64-0.687a10.766 10.766 0 0 0 6.903-10.165 10.714 10.714 0 0 0-10.68-10.852 10.594 10.594 0 0 0-10.56 10.852m107.538-56.318c-6.886-2.885-13.788-5.358-20.433-5.632-10.268-0.55-21.497 3.708-27.575 8.928-9.478 8.105-16.244 12.638-19.077 26.786-1.219 6.044-0.55 15.384 0.533 20.741 2.438 11.539-0.275 18.956-8.242 25.687-6.49 5.495-14.75 7.006-23.815 7.006-3.383 0-6.49 1.51-8.791 2.747a9.014 9.014 0 0 0-3.915 12.637c0.944 1.923 5.546 6.594 6.628 7.418 12.31 7.143 26.51 4.807 39.628-0.55 12.174-5.082 21.36-14.423 34.633-27.61 13.53-15.934 15.968-20.33 23.66-32.28 6.096-9.34 11.642-18.956 15.42-29.944 2.317-6.869-0.67-12.5-8.654-15.934"  horiz-adv-x="1391" />
      
      <glyph glyph-name="qianwen" unicode="&#58891;" d="M1019.364785 275.183069L891.797142 498.192705 946.450846 602.84931a29.097778 29.097778 0 0 1 6.399732 36.393472l-70.184053 126.586684a30.078737 30.078737 0 0 1-24.574968 13.652427H597.4945L539.171949 881.450611a27.348852 27.348852 0 0 1-20.906122 14.549389H380.628607a29.139776 29.139776 0 0 1-24.616967-14.549389v-5.545767L225.797108 652.937207H100.919352a29.182775 29.182775 0 0 1-25.513928-13.653427L3.428446 511.88813a32.766624 32.766624 0 0 1 0-29.182775L132.831012 257.903795 74.508461 155.935077a32.766624 32.766624 0 0 1 0-29.05478l66.514207-116.561105a29.905744 29.905744 0 0 1 25.513929-14.505391H427.132654l62.845361-109.222414A30.078737 30.078737 0 0 1 512.762058-128H660.382859a29.139776 29.139776 0 0 1 24.574968 14.549389l128.463606 224.843558h114.76818a31.91366 31.91366 0 0 1 24.660965 15.444352l66.471208 117.414069a28.158818 28.158818 0 0 1 0 30.9747l0.042999-0.042999z m-161.273228-14.591387L791.57735 383.509521 518.265827-97.964261l-74.748861 122.87484h-273.268525l65.618244 119.205994h139.386147L101.856313 623.755432h143.055993L380.671605 865.878265l68.34913-119.247993-70.184053-122.87484H925.501726l-69.202094-121.936879 137.594222-241.183873H858.134555zM499.962596 196.679366l174.371677 274.719464H324.694955z"  horiz-adv-x="1024" />
      
      <glyph glyph-name="yinpinzanting" unicode="&#58892;" d="M512 896C229.624242 896 0 666.375758 0 384s229.624242-512 512-512 512 229.624242 512 512S794.375758 896 512 896z m-77.575758-713.69697c0-26.375758-21.721212-46.545455-46.545454-46.545454-26.375758 0-46.545455 21.721212-46.545455 46.545454V585.69697c0 26.375758 21.721212 46.545455 46.545455 46.545454 26.375758 0 46.545455-21.721212 46.545454-46.545454v-403.39394z m248.242425 0c0-26.375758-21.721212-46.545455-46.545455-46.545454-26.375758 0-46.545455 21.721212-46.545454 46.545454V585.69697c0 26.375758 21.721212 46.545455 46.545454 46.545454 26.375758 0 46.545455-21.721212 46.545455-46.545454v-403.39394z"  horiz-adv-x="1024" />
      
      <glyph glyph-name="aixin" unicode="&#58897;" d="M913.92 687.616c-98.816 98.816-258.56 98.816-357.376 0l-41.984-41.984-41.984 41.984c-98.816 98.816-258.56 98.816-357.376 0-98.304-98.816-98.304-258.56 0.512-357.376l52.224-52.224 337.408-337.408c5.632-5.632 14.336-5.632 19.968 0l337.408 337.408 52.224 52.224c97.792 98.816 97.792 258.56-1.024 357.376z"  horiz-adv-x="1024" />
      
      <glyph glyph-name="GIF" unicode="&#60309;" d="M944 597H692c-4.4 0-8-3.6-8-8v-406c0-4.4 3.6-8 8-8h59.2c4.4 0 8 3.6 8 8V346.1h168.2c4.4 0 8 3.6 8 8V401c0 4.4-3.6 8-8 8H759.2V531.8H944c4.4 0 8 3.6 8 8V589c0 4.4-3.6 8-8 8z m-356-1h-56c-4.4 0-8-3.6-8-8v-406c0-4.4 3.6-8 8-8h56c4.4 0 8 3.6 8 8V588c0 4.4-3.6 8-8 8zM452 395.1H290.5c-4.4 0-8-3.6-8-8v-43.7c0-4.4 3.6-8 8-8h94.9l-0.3-8.9c-1.2-58.8-45.6-98.5-110.9-98.5-76.2 0-123.9 59.7-123.9 156.7 0 95.8 46.8 155.2 121.5 155.2 54.8 0 93.1-26.9 108.5-75.4h76.2c-13.6 87.2-86 143.4-184.7 143.4C150 608 72 520.8 72 384.1 72 245.8 149.1 160 273 160c114.1 0 187 70.7 187 181.6v45.5c0 4.4-3.6 8-8 8z"  horiz-adv-x="1024" />
      
      <glyph glyph-name="minganci" unicode="&#58923;" d="M515.0208 362.2912h72.8576v-94.6176h-72.8576zM781.9264 790.3744H237.6192c-73.0624 0-132.5056-59.4432-132.5056-132.5056v-544.3072c0-73.0624 59.4432-132.5056 132.5056-132.5056h544.3072c73.0624 0 132.5056 59.4432 132.5056 132.5056V657.92c-0.0512 73.0624-59.4432 132.4544-132.5056 132.4544zM265.0112 635.2384a30.67904 30.67904 0 0 0 43.4176-1.2288l32.0512-33.9456a30.67904 30.67904 0 0 0-1.2288-43.4176 30.5152 30.5152 0 0 0-21.0944-8.3968 30.6176 30.6176 0 0 0-22.3232 9.6256l-32.0512 33.9456c-11.6224 12.3392-11.1104 31.7952 1.2288 43.4176z m144.384-451.6352l-75.5712-40.96a30.83776 30.83776 0 0 0-32.1024 1.7408 30.70464 30.70464 0 0 0-12.9536 29.44l38.2976 281.7536h-48.8448c-16.9472 0-30.72 13.7728-30.72 30.72s13.7728 30.72 30.72 30.72h84.0192c8.8576 0 17.3056-3.84 23.1424-10.496s8.4992-15.5648 7.3216-24.32l-34.8672-256.6144 22.3232 12.1344c14.9504 8.0896 33.5872 2.56 41.6256-12.3904 8.0384-15.0016 2.5088-33.6384-12.3904-41.728z m74.9056 22.6304c-16.9472 0-30.72 13.7728-30.72 30.72V393.0112c0 16.9472 13.7728 30.72 30.72 30.72h134.2976c16.9472 0 30.72-13.7728 30.72-30.72v-156.0576c0-16.9472-13.7728-30.72-30.72-30.72H484.3008z m-36.6592 282.3168c0 16.9472 13.7728 30.72 30.72 30.72h140.544c16.9472 0 30.72-13.7728 30.72-30.72s-13.7728-30.72-30.72-30.72H478.3616c-16.9472 0-30.72 13.7216-30.72 30.72z m314.1632-303.5136c0-40.1408-32.6656-72.8576-72.8576-72.8576h-24.0128c-16.9472 0-30.72 13.7728-30.72 30.72s13.7728 30.72 30.72 30.72h24.0128c6.2976 0 11.4176 5.12 11.4176 11.4176v380.928c0 11.7248-7.68 21.6576-16.6912 21.6576H458.9568c-16.9472 0-30.72 13.7728-30.72 30.72s13.7728 30.72 30.72 30.72h224.6656c43.1104 0 78.1312-37.2736 78.1312-83.0976v-380.928z"  horiz-adv-x="1024" />
      
      <glyph glyph-name="yinpin" unicode="&#58884;" d="M512-63.6C264.8-63.6 64.4 136.8 64.4 384 64.4 631.2 264.8 831.6 512 831.6c247.2 0 447.6-200.4 447.6-447.6 0-247.2-200.4-447.6-447.6-447.6zM288.2 551.8c-15.4 0-28-12.5-28-28v-279.7c0-15.4 12.5-28 28-28 15.4 0 28 12.5 28 28V523.9c0 15.4-12.5 27.9-28 27.9zM735.8 551.8c-15.4 0-28-12.5-28-28v-279.7c0-15.4 12.5-28 28-28 15.4 0 28 12.5 28 28V523.9c-0.1 15.4-12.6 27.9-28 27.9zM400.1 495.9c-15.4 0-28-12.5-28-28v-167.8c0-15.4 12.5-28 28-28 15.4 0 28 12.5 28 28V467.9c0 15.5-12.5 28-28 28zM623.9 495.9c-15.4 0-28-12.5-28-28v-167.8c0-15.4 12.5-28 28-28 15.4 0 28 12.5 28 28V467.9c0 15.5-12.6 28-28 28zM512 663.7c-15.4 0-28-12.5-28-28v-503.5c0-15.4 12.5-28 28-28 15.4 0 28 12.5 28 28V635.8c0 15.4-12.6 27.9-28 27.9z"  horiz-adv-x="1024" />
      
      <glyph glyph-name="mv" unicode="&#59600;" d="M1133.447837 57.505959c-15.030857-67.474286-96.156735-138.60049-173.630694-152.095347-249.782857-40.505469-499.570939-40.505469-749.348572 0-77.473959 13.494857-158.599837 84.621061-173.641142 152.095347-45.134367 217.657469-45.134367 435.320163 0 652.982857C51.858286 777.963102 132.989388 849.099755 210.468571 862.589388c249.772408 40.500245 499.56049 40.500245 749.348572 0 77.46351-13.489633 158.594612-84.621061 173.630694-152.100572 45.144816-217.657469 45.144816-435.325388 0-652.982857zM906.44898 647.836735m-70.530613 0a70.530612 70.530612 0 1 1 141.061225 0 70.530612 70.530612 0 1 1-141.061225 0ZM453.637224 581.146122c32.888163 82.964898 347.987592-116.166531 347.987592-193.238204 0-79.66302-236.512653-229.642449-329.905632-229.642449-55.881143 16.070531-74.861714 370.358857-18.08196 422.880653z"  horiz-adv-x="1170" />
      
      <glyph glyph-name="icon-ok" unicode="&#59068;" d="M512 896C229.2224 896 0 666.7776 0 384s229.2224-512 512-512 512 229.2224 512 512S794.7776 896 512 896z m197.6832-424.448L492.032 253.952a30.0032 30.0032 0 0 0-42.3936 0l-0.4096 0.512c-0.1536 0.1536-0.256 0.3584-0.512 0.4608L314.368 389.2224a30.0032 30.0032 0 0 0 42.3936 42.3936l113.9712-114.0224 196.5056 196.4032a30.0032 30.0032 0 0 0 42.496-42.3936z"  horiz-adv-x="1024" />
      
      <glyph glyph-name="yihuizhi" unicode="&#58896;" d="M904.533333 355.555556v-284.444445c0-45.511111-34.133333-79.644444-79.644444-79.644444h-625.777778c-45.511111 0-79.644444 34.133333-79.644444 79.644444v625.777778c0 45.511111 34.133333 79.644444 79.644444 79.644444h284.444445V839.111111h-284.444445C119.466667 839.111111 56.888889 776.533333 56.888889 696.888889v-620.088889C56.888889-8.533333 119.466667-71.111111 199.111111-71.111111h620.088889c79.644444 0 142.222222 62.577778 142.222222 142.222222v284.444445h-56.888889zM352.711111 520.533333l153.6-153.6c17.066667-17.066667 34.133333-22.755556 51.2-22.755555 17.066667 0 39.822222 5.688889 51.2 22.755555l312.888889 312.888889-45.511111 45.511111-312.888889-312.888889c-5.688889-5.688889-11.377778-5.688889-17.066667 0L398.222222 566.044444l-45.511111-45.511111z"  horiz-adv-x="1024" />
      
      <glyph glyph-name="yuyintonghua" unicode="&#59747;" d="M832.853333 186.026667c-27.306667 20.48-61.44 40.96-88.746666 54.613333-40.96 20.48-61.44 27.306667-68.266667 27.306667-20.48 0-40.96-13.653333-54.613333-34.133334l-20.48-40.96c-6.826667-13.653333-13.653333-27.306667-20.48-34.133333-6.826667 0-34.133333 13.653333-75.093334 40.96C477.866667 220.16 436.906667 254.293333 409.6 281.6c-34.133333 27.306667-61.44 68.266667-88.746667 109.226667-27.306667 34.133333-34.133333 61.44-40.96 68.266666 6.826667 6.826667 20.48 13.653333 34.133334 20.48 20.48 6.826667 34.133333 13.653333 47.786666 20.48 20.48 13.653333 34.133333 34.133333 34.133334 54.613334 0 6.826667 0 27.306667-27.306667 68.266666-13.653333 27.306667-34.133333 54.613333-54.613333 88.746667-13.653333 20.48-34.133333 47.786667-61.44 75.093333-27.306667 27.306667-47.786667 40.96-68.266667 40.96C136.533333 827.733333 81.92 759.466667 68.266667 738.986667c-20.48-27.306667-68.266667-95.573333-68.266667-163.84 0-61.44 40.96-143.36 75.093333-197.973334 47.786667-75.093333 109.226667-157.013333 177.493334-225.28l20.48-20.48c68.266667-68.266667 150.186667-136.533333 225.28-177.493333 54.613333-34.133333 136.533333-75.093333 197.973333-75.093333 68.266667 0 136.533333 47.786667 163.84 68.266666 20.48 13.653333 88.746667 68.266667 88.746667 116.053334 0 20.48-13.653333 40.96-40.96 68.266666-20.48 20.48-54.613333 40.96-75.093334 54.613334zM764.586667 418.133333c0-27.306667 20.48-54.613333 54.613333-54.613333s54.613333 20.48 54.613333 54.613333c0 143.36-116.053333 259.413333-259.413333 259.413334-27.306667 0-54.613333-27.306667-54.613333-54.613334s27.306667-54.613333 54.613333-54.613333c81.92 0 150.186667-68.266667 150.186667-150.186667zM614.4 882.346667c-27.306667 0-54.613333-27.306667-54.613333-54.613334s27.306667-54.613333 54.613333-54.613333c197.973333 0 354.986667-163.84 354.986667-354.986667 0-27.306667 20.48-54.613333 54.613333-54.613333s54.613333 20.48 54.613333 54.613333C1078.613333 670.72 866.986667 882.346667 614.4 882.346667z"  horiz-adv-x="1092" />
      
      <glyph glyph-name="icon-wenjian" unicode="&#58922;" d="M883.1488 629.4015999999999h-221.2352V754.1248a140.9024 140.9024 0 0 1-140.8 140.8H140.8512a140.9024 140.9024 0 0 1-140.8-140.8v-259.7376h0.5632c-0.0512-1.9456-0.5632-3.7888-0.5632-5.7856v-474.7264a140.9536 140.9536 0 0 1 140.8-140.8h529.7152a38.4 38.4 0 0 1 0 76.8H140.8512c-35.2768 0-64 28.7232-64 64V488.6016c0 6.8096 1.8944 13.056 3.8912 19.2 0.6656 2.0992 0.768 4.4032 1.6384 6.4 2.816 6.3488 6.8608 11.9296 11.4688 17.0496 0.8192 0.8192 1.2288 1.9456 2.048 2.7648 11.5712 11.4688 27.4432 18.5856 45.0048 18.5856h742.2464c35.2768 0 64-28.7232 64-64v-474.7264c0-35.2768-28.7232-64-64-64h-11.4688a38.4 38.4 0 0 1 0-76.8h11.4688a140.9536 140.9536 0 0 1 140.8 140.8V488.6016a140.9536 140.9536 0 0 1-140.8 140.8z m-742.2976 0H140.288c-1.1776 0-2.2016-0.3584-3.328-0.4096a139.264 139.264 0 0 1-26.7264-3.1744c-4.4032-0.9728-8.4992-2.56-12.7488-3.9424a144.9984 144.9984 0 0 1-15.36-5.6832c-1.6896-0.8192-3.584-1.1264-5.2736-1.9968V754.1248c0 35.2768 28.7232 64 64 64h380.2112c35.2768 0 64-28.7232 64-64v-124.7744H140.8512zM741.632 384.6656m-49.664 0a49.664 49.664 0 1 1 99.328 0 49.664 49.664 0 1 1-99.328 0Z"  horiz-adv-x="1024" />
      
      <glyph glyph-name="xitongxiaoxi" unicode="&#58951;" d="M560.698809 3.884593c0-93.996508-72.090748-45.465702-72.090749-45.465702L176.454026 221.069071h-48.214565c-29.872596 0-54.06502 24.642459-54.06502 55.050232v220.152276c0 30.407773 24.192424 55.038069 54.06502 55.03807h57.677464L488.64455 808.09721S560.698809 857.078051 560.698809 762.205799v-758.321206m162.207224 235.53861c90.116476 73.367875 84.095737 212.489518 0 275.166019-33.022841 19.862357-54.052857-45.867085-54.052857-45.867085s84.095737-105.478483 0-183.444013c-16.529665-21.407072 15.009277-65.68079 54.052857-45.854921m45.003504 431.084916c-12.004989 10.715699-70.546033-29.045505-36.039293-64.196891 178.7004-151.345568 181.692525-293.520151 0-449.439048-27.038592-25.992564 9.000701-74.924753 36.039293-64.209053 247.774697 114.66163 237.277934 470.833957 0 577.844992m0 0z"  horiz-adv-x="1024" />
      
      <glyph glyph-name="qingniaochuanxin" unicode="&#58882;" d="M162.651733 513.493333a42.666667 42.666667 0 0 0-43.093333-73.258666c-46.464 21.802667-72.96 49.450667-48.725333 91.264C116.9984 611.114667 238.385067 691.882667 322.481067 691.882667c88.064 0 155.818667-34.517333 221.482666-109.568 62.293333 35.413333 117.930667 89.728 174.037334 167.893333a42.666667 42.666667 0 0 0 71.765333-3.797333c34.56-60.757333 43.605333-135.338667 29.141333-205.909334 7.594667 3.413333 15.317333 7.381333 23.552 12.074667a42.666667 42.666667 0 0 0 62.634667-27.050667c17.92-74.282667-43.733333-189.098667-111.488-255.744 16.085333-16.213333 31.744-30.421333 48.981333-43.904 44.842667-35.029333 93.354667-59.264 147.114667-69.546666a42.666667 42.666667 0 0 0 25.088-68.778667c-93.525333-115.242667-442.282667-144.128-657.92 5.461333a42.624 42.624 0 0 0-17.792 42.112l-100.138667-56.789333a42.624 42.624 0 0 0-53.504 9.429333L10.545067 293.034667a42.666667 42.666667 0 0 0 18.432 67.968l181.632 63.274666a42.666667 42.666667 0 0 0 37.077333-4.352l218.922667-140.586666a42.666667 42.666667 0 0 0-1.962667-73.002667l-67.925333-38.528c3.029333-1.194667 5.973333-2.773333 8.789333-4.693333 99.029333-68.693333 219.989333-95.317333 342.784-85.12a565.248 565.248 0 0 1 129.450667 25.984 466.901333 466.901333 0 0 0-87.68 54.656c-34.645333 27.050667-100.992 94.421333-87.466667 82.389333a42.666667 42.666667 0 0 0 4.650667 67.370667c37.162667 24.874667 83.114667 87.424 104.32 138.965333-16.128-4.437333-33.152-7.765333-52.608-10.666667a42.666667 42.666667 0 0 0-44.330667 61.525334 236.714667 236.714667 0 0 1 23.296 138.965333c-57.514667-67.157333-118.016-115.328-187.264-147.242667a42.581333 42.581333 0 0 0-51.584 12.629334C441.0944 577.408 391.5584 606.549333 322.481067 606.549333c-43.733333 0-118.826667-45.653333-159.829334-93.056z m-46.72-212.565333l111.573334-130.986667 133.589333 75.776-142.037333 91.178667-103.125334-35.968zM299.0144 469.333333a42.666667 42.666667 0 1 1 0 85.333334 42.666667 42.666667 0 0 1 0-85.333334z"  horiz-adv-x="1024" />
      
      <glyph glyph-name="lishijilu" unicode="&#58960;" d="M515.396 797c229.198 0 415-185.802 415-415 0-104.959-39.436-208.142-120.273-292.344L516.856 391.222 515.396 797zM515.396 737c47.951 0 94.436-9.378 138.164-27.873 42.266-17.877 80.237-43.482 112.859-76.104s58.227-70.593 76.104-112.859c18.495-43.728 27.873-90.212 27.873-138.164s-9.378-94.436-27.873-138.164c-17.877-42.266-43.482-80.237-76.104-112.859s-70.593-58.227-112.859-76.104C609.832 36.37800000000004 563.347 27 515.396 27s-94.436 9.378-138.164 27.873c-42.266 17.877-80.237 43.482-112.859 76.104s-58.227 70.593-76.104 112.859c-18.495 43.728-27.873 90.213-27.873 138.164s9.378 94.436 27.873 138.164c17.877 42.266 43.482 80.237 76.104 112.859s70.593 58.227 112.859 76.104C420.96 727.6220000000001 467.445 737 515.396 737m0 60c-229.198 0-415-185.802-415-415s185.802-415 415-415 415 185.802 415 415-185.802 415-415 415zM515.396 691.867c-15.217 0-27.667-12.45-27.667-27.667v-277.589c0-15.217 12.45-27.667 27.667-27.667s27.667 12.45 27.667 27.667V664.2c0 15.217-12.45 27.667-27.667 27.667zM515.669 413.587c-7.092 0-14.183-2.69-19.563-8.07-10.76-10.76-10.76-28.367 0-39.126l141.398-141.398c5.38-5.38 12.471-8.07 19.563-8.07 7.092 0 14.183 2.69 19.563 8.07 10.76 10.76 10.76 28.367 0 39.126L535.233 405.517c-5.38 5.38-12.472 8.07-19.564 8.07z"  horiz-adv-x="1024" />
      
      <glyph glyph-name="icon_phone_accept_hover" unicode="&#58893;" d="M0 896m512 0l0 0q512 0 512-512l0 0q0-512-512-512l0 0q-512 0-512 512l0 0q0 512 512 512ZM388.608 449.6128c34.9696 35.072 66.0736 56.4736 3.8656 134.3744-62.208 77.9008-104.96 19.456-137.984-15.5904-38.8864-38.9376-1.9456-186.9568 143.8208-333.0048 145.792-146.0736 291.584-183.0656 332.3904-144.128 34.9696 35.072 93.2864 75.9552 15.5392 138.2656-77.7472 62.336-99.1232 31.1552-134.1184-3.8912-25.2672-25.3184-87.4752 27.264-141.8752 81.792-54.4256 54.528-106.9056 116.864-81.664 142.1824z"  horiz-adv-x="1024" />
      
      <glyph glyph-name="icon_phone_reject_nor" unicode="&#58895;" d="M0 896m512 0l0 0q512 0 512-512l0 0q0-512-512-512l0 0q-512 0-512 512l0 0q0 512 512 512ZM670.592 366.5664c0.0512-49.536-6.784-86.656 92.2624-97.792 99.072-11.0848 87.9872 60.4672 86.5792 108.6208-0.0512 55.04-130.816 133.5808-337.2032 133.7856-206.336 0.2048-335.616-76.7232-336.896-133.12 0.0256-49.536-12.288-119.68 86.7584-108.8 99.0464 10.9312 92.1344 48.0768 92.0832 97.6128-0.0512 35.7632 81.1264 42.5728 158.1568 42.496 77.056-0.0768 158.208-7.04 158.2592-42.8032z"  horiz-adv-x="1024" />
      
      <glyph glyph-name="dianzan" unicode="&#58992;" d="M170.5 227.8c7.5-14.7 21.8-25.1 39.2-28.5 52-10.2 143.1-26 169.8-30.7 19.3-18.4 84.3-80.4 123.6-116.4 15.9-14.6 30.6-18.5 41.7-18.5 2.7 0 5.2 0.2 7.5 0.6 11.6 1.8 28.1 9 41.2 32.3 26.8 47.5 70.6 129.3 83.2 152.9 22.8 12.6 100.2 55.6 147.3 83.1 24.7 14.4 32.1 31.9 33.9 44 1.8 11.8 0.1 30.2-18.3 50.6-36.1 39.8-96.4 103.5-114.4 122.6-4.5 25.9-19.6 112.6-30.2 165.9-3.9 19.7-15.4 35.7-31.6 43.9-16 8.1-34.9 7.8-53.2-0.7-49.2-23.1-129-62.3-152.5-73.9-26.4 3.2-116.7 14.1-169.8 19.4-17.1 1.7-34-4.3-46.2-16.6-12.8-12.9-19.4-31.3-17.5-49.3 5.7-54 16.9-144.3 20.2-170.5-11.3-23.8-50.3-106.3-72.8-156.2-11.2-24.6-6.8-42.9-1.1-54z m319.6 357.1c9 9 21 14 33.8 14h0.1c12.8 0 24.8-5 33.8-14.1l22.4-22.4c9-9.1 14-21.1 14-33.9 0-12.8-5-24.8-14.1-33.8-9.1-9-21.1-14-33.8-14-12.8 0-24.9 5-33.9 14.1L490 517.2c-18.7 18.7-18.6 49.1 0.1 67.7z m-38.6-249.4c6 25.5 31.5 41.6 57.1 35.8 0.1 0 15.4-2.8 24.2 6.1 9 9 6.4 25.7 6.4 25.9-5.5 25.2 10.9 50.8 36.7 56.4 25.8 5.6 51.4-10.8 57-36.6 5.4-24.7 4.7-76.3-32.3-113.4-30-30.2-67.5-34.7-87.1-34.7-9.3 0-18.4 1-26.3 2.8-25.7 6.2-41.7 32-35.7 57.7z m-140.3 69.8c9 9 21 14 33.8 14h0.1c12.8 0 24.8-5 33.8-14.1l22.4-22.4c9-9.1 14-21.1 14-33.9 0-12.8-5-24.8-14.1-33.9-9-9-21.1-14-33.8-14-12.8 0-24.9 5-33.9 14.1l-22.4 22.5c-9 9.1-14 21.1-14 33.9 0.1 12.8 5.1 24.8 14.1 33.8zM290.9 716.6l10.5-1.2c0.6-0.1 1.3-0.1 1.9-0.1 8.6 0 16 6.5 17 15.2 1 9.4-5.7 17.9-15.1 18.9l-10.4 1.2c-9.3 1.1-17.9-5.7-18.9-15.1-1.2-9.3 5.6-17.8 15-18.9zM926.2 411.5c-40.6 44.8-106.8 114.9-136.9 146.7-6.3 36.5-23.9 136.3-36.2 198.5-5.8 29.4-23.2 53.3-47.8 65.7-24.4 12.3-52.9 12.1-80.2-0.7-58-27.3-149.4-72.1-182.6-88.4-15.9 1.9-43.7 5.3-75.2 9-9.4 1.1-17.9-5.6-19-15-1.1-9.4 5.6-17.9 15-19 35-4.1 65.5-7.8 80.1-9.6 3.3-0.4 6.6 0.2 9.6 1.6 28.4 14 125.9 61.9 186.6 90.4 17.6 8.2 35.4 8.6 50.2 1.1 15.1-7.6 25.9-22.9 29.6-41.8 12.9-65 31.5-171.7 36.9-202.8 0.6-3.3 2.1-6.4 4.4-8.8 28.1-29.6 97.9-103.5 139.9-149.9 18.1-20 19.9-37 18.2-47.9-1.7-11.1-8.9-27.4-33.3-41.7-58-33.9-152.5-86.4-180.1-101.6-1.3-0.7-2.5-1.7-3.6-2.7-0.1-0.1-0.1-0.1-0.2-0.1-1.2-1.2-2.2-2.5-3-4C683.2 161.4 630 61.9 597 3.4c-12.7-22.7-27.9-29.4-38.3-31.1-2-0.3-4.1-0.5-6.5-0.5-13.2 0-26.5 6.1-39.6 18.1-47.9 43.9-127.8 120.1-151.2 142.4-2.5 2.4-5.6 3.9-8.9 4.5-42.3 7.4-147.3 25.7-207.6 37.5-16.1 3.2-29.3 12.7-36.1 26-5.2 10.2-9.2 27.3 1.7 51.2 27.5 61 75.1 161.7 89.1 191.1 1.4 2.9 1.9 6.2 1.5 9.4-5.2 41.6-18 145.2-24.7 208.6-1 9.4-9.5 16.1-18.8 15.2-9.4-1-16.2-9.4-15.2-18.8 6.4-61.3 18.6-159.8 24.1-204.3-16.2-34.2-60.9-128.8-87.2-187.2-16.5-36.4-9.6-64.1-0.9-80.9 11.6-22.7 33.5-38.7 59.9-43.9 58.4-11.4 158-28.9 203.3-36.7 27.3-26.1 102.1-97.4 147.9-139.3 24.4-22.4 47.6-27.1 62.7-27.1 3.9 0 7.9 0.3 11.8 0.9 17.9 2.9 43.3 13.5 62.7 48.1 27.6 48.8 69.1 126 91.3 167.4l123.4-123.4c3.3-3.3 7.7-5 12.1-5 4.4 0 8.8 1.7 12.1 5 6.7 6.7 6.7 17.5 0 24.2L742 178.4c39.5 21.9 112.7 62.8 161 91 36 21.1 47 47.6 49.8 66 2.8 18.3 0.5 46.2-26.6 76.1zM235.8 722.5c0.3 0 0.5 0 0.8-0.1h0.8v-0.1c0.6-0.1 1.1-0.1 1.7-0.1 8.7 0 16.1 6.6 17 15.4 0.9 9.4-5.9 17.8-15.3 18.7-0.6 0.1-1.1 0.1-1.7 0.1v0.1c-9.3 0.9-17.8-6-18.7-15.4-0.9-9.3 6-17.7 15.4-18.6zM357.7 339.3c5.1-5.2 14.1-5.2 19.3 0 2.6 2.6 4 6 4 9.6 0 3.7-1.4 7.1-4 9.7L354.7 381c-2.6 2.6-6 4-9.7 4-3.6 0-7.1-1.4-9.6-4-2.6-2.6-4-6-4-9.7 0-3.7 1.4-7.1 4-9.7l22.3-22.3zM333.5 315.1c9.1-9.1 21.1-14.1 33.9-14.1 12.7 0 24.8 5 33.8 14 9.1 9 14.1 21.1 14.1 33.9 0 12.8-4.9 24.8-14 33.9L379 405.2c-9 9.1-21.1 14.1-33.8 14.1h-0.1c-12.8 0-24.8-5-33.8-14-9.1-9-14.1-21.1-14.1-33.8 0-12.8 4.9-24.8 14-33.9l22.3-22.5z m1.9 66c2.6 2.6 6 4 9.6 4 3.6 0 7.1-1.4 9.7-4l22.4-22.4c2.6-2.6 4-6 4-9.7 0-3.6-1.4-7.1-4-9.6-5.2-5.2-14.2-5.1-19.3 0l-22.4 22.4c-2.6 2.6-4 6-4 9.7 0 3.6 1.4 7 4 9.6zM536.6 518.9c5.2-5.2 14.1-5.2 19.3 0 2.6 2.6 4 6 4 9.7 0 3.6-1.4 7.1-4 9.7l-22.4 22.4c-5.3 5.3-14 5.4-19.3 0-5.3-5.3-5.4-14 0-19.3l22.4-22.5zM512.3 494.7c9.1-9.1 21.1-14.1 33.9-14.1 12.7 0 24.8 5 33.8 14 9.1 9 14.1 21.1 14.1 33.8 0 12.8-4.9 24.8-14 33.9l-22.4 22.4c-9 9.1-21.1 14.1-33.8 14.1h-0.1c-12.8 0-24.8-5-33.8-14-18.7-18.6-18.8-49-0.1-67.8l22.4-22.3z m1.9 66c5.3 5.3 14 5.3 19.3 0l22.4-22.4c2.6-2.6 4-6 4-9.7 0-3.7-1.4-7.1-4-9.7-5.2-5.2-14.2-5.2-19.3 0l-22.4 22.4c-5.3 5.4-5.3 14 0 19.4zM495 311.3c5.3-1.2 11.9-1.9 18.5-1.9 14.3 0 41.6 3.2 62.9 24.6 26.6 26.7 26.7 65.2 23.1 81.9-1.6 7.4-8.9 12-16.3 10.4-7.4-1.6-12.1-8.9-10.5-16.3 0-0.2 7-34-15.7-56.8-21.4-21.5-52.1-16.1-55.5-15.4-1.1 0.2-2.1 0.4-3.2 0.4-6.4 0-12-4.3-13.5-10.5-1.7-7.3 2.9-14.7 10.2-16.4zM487.2 277.9c7.9-1.8 17-2.8 26.3-2.8 19.6 0 57.1 4.5 87.1 34.7 36.9 37.1 37.7 88.7 32.3 113.4-5.6 25.8-31.2 42.2-57 36.6-25.8-5.6-42.2-31.2-36.7-56.4 0-0.2 2.6-16.8-6.4-25.9-8.8-8.8-24.1-6.1-24.2-6.1-25.6 5.7-51.1-10.4-57.1-35.8-6-25.8 10-51.6 35.7-57.7z m-2.4 49.8c1.5 6.2 7.1 10.5 13.5 10.5 1.1 0 2.1-0.1 3.2-0.4 3.4-0.7 34.1-6.1 55.5 15.4 22.7 22.8 15.8 56.6 15.7 56.8-1.6 7.4 3.1 14.7 10.5 16.3 7.3 1.6 14.7-3.1 16.3-10.4 3.6-16.7 3.5-55.2-23.1-81.9-21.3-21.4-48.5-24.6-62.9-24.6-6.6 0-13.2 0.7-18.5 1.9-7.3 1.7-11.9 9.1-10.2 16.4z"  horiz-adv-x="1024" />
      
      <glyph glyph-name="dianzan1" unicode="&#65215;" d="M505.088 382.8736m-450.816 0a450.816 450.816 0 1 1 901.632 0 450.816 450.816 0 1 1-901.632 0ZM356.6592 320.9216c0 54.5792 0.3584 109.1584-0.2048 163.6864-0.1536 15.872 5.5296 24.2176 20.992 29.5424 58.88 20.2752 93.7472 63.1296 110.848 121.9072 5.9392 20.4288 11.4176 41.216 19.7632 60.672 13.4656 31.5904 38.2464 42.7008 72.6528 35.328 26.5216-5.6832 43.3152-28.3648 43.5712-60.16 0.3584-40.4992 0.0512-80.9984 0.1536-121.4976 0.0512-22.2208 3.9424-26.7264 26.5728-26.9824 45.568-0.512 91.1872-1.536 136.704 0.256 40.5504 1.5872 69.9392-24.832 59.7504-69.9904-12.2368-54.0672-27.648-107.4688-42.7008-160.8704-9.2672-32.9216-20.1728-65.4336-30.8736-97.9456-14.1312-43.008-40.448-62.0544-84.8896-62.0544H390.2976c-32.1024 0-33.6384 1.536-33.6384 32.8704v155.2384zM307.8656 322.0992c0-52.8896 0.1024-105.7792-0.0512-158.6688-0.1024-26.0096-4.9152-30.6176-30.3616-30.6688-7.3216 0-14.6432-0.0512-21.9648 0-29.8496 0.1536-44.032 14.08-44.2368 44.6976-0.3072 55.1424-0.1024 110.2848-0.1024 165.4272 0 40.4992-0.1536 81.0496 0.0512 121.5488 0.2048 32.2048 15.7696 47.616 47.5136 47.7184 49.1008 0.2048 49.152 0.2048 49.152-48.2304 0.0512-47.2576 0.0512-94.5152 0-141.824z"  horiz-adv-x="1024" />
      
      <glyph glyph-name="fabiaoqing" unicode="&#58959;" d="M510 737c47.951 0 94.436-9.378 138.164-27.873 42.266-17.877 80.237-43.482 112.859-76.104s58.227-70.593 76.104-112.859C855.622 476.436 865 429.951 865 382s-9.378-94.436-27.873-138.164c-17.877-42.266-43.482-80.237-76.104-112.859s-70.593-58.227-112.859-76.104C604.436 36.37800000000004 557.951 27 510 27s-94.436 9.378-138.164 27.873c-42.266 17.877-80.237 43.482-112.859 76.104s-58.227 70.593-76.104 112.859C164.378 287.56399999999996 155 334.049 155 382s9.378 94.436 27.873 138.164c17.877 42.266 43.482 80.237 76.104 112.859s70.593 58.227 112.859 76.104C415.564 727.6220000000001 462.049 737 510 737m0 60C280.802 797 95 611.198 95 382s185.802-415 415-415 415 185.802 415 415S739.198 797 510 797zM342.102 277.70000000000005C373.429 199.49 436.855 146 510 146s136.571 53.49 167.898 131.7H342.102zM677.898 277.70000000000005h0.005m-0.005 0C646.571 199.49 583.145 146 510 146s-136.571 53.49-167.898 131.7h335.796m0.005 60H342.102a60.001 60.001 0 0 1-55.698-82.31c19.474-48.618 49.374-90.012 86.468-119.708C413.471 103.17999999999995 460.889 86 510 86s96.529 17.18 137.129 49.682c36.718 29.395 66.387 70.251 85.872 118.231a59.8 59.8 0 0 1 4.9 23.787c0 33.113-26.821 59.961-59.925 60h-0.073z m-0.005-120h0.005-0.005zM483.031 439.878h-60c0 38.114-31.008 69.122-69.122 69.122-38.114 0-69.123-31.008-69.123-69.122h-60C224.786 511.076 282.71 569 353.909 569s129.122-57.924 129.122-129.122zM795.214 439.878h-60c0 38.114-31.008 69.122-69.122 69.122s-69.123-31.008-69.123-69.122h-60c0 71.198 57.925 129.122 129.123 129.122s129.122-57.924 129.122-129.122z"  horiz-adv-x="1024" />
      
      <glyph glyph-name="phone2" unicode="&#58899;" d="M804.576 214.293q0 6.294-1.152 9.152-1.707 4.566-21.995 16.854t-50.581 28.288l-30.293 16.576q-2.859 1.706-10.859 7.424t-14.293 8.576-12.011 2.858q-10.283 0-26.859-18.581t-32.576-37.419-25.152-18.858q-4.01 0-9.429 2.005t-8.853 3.712-9.707 5.419-8 4.864q-56.576 31.424-97.43 72.277t-72.277 97.43q-1.152 1.706-4.864 8t-5.418 9.706-3.712 8.853-2.006 9.43q0 7.424 11.712 19.136t25.707 21.994 25.707 22.571 11.712 20.864q0 5.717-2.859 12.01t-8.576 14.294-7.424 10.859q-1.707 3.434-8.576 16.277t-14.293 26.005-15.147 27.136-14.293 23.147-9.43 10.283-9.152 1.152q-27.434 0-57.706-12.566-26.283-12.01-45.718-53.994t-19.434-74.582q0-9.152 1.429-19.434t2.859-17.43 5.141-18.858 5.717-16.854 7.147-18.858 6.293-17.152q34.283-93.718 123.712-183.147T554.784 120q3.435-1.152 17.152-6.293t18.859-7.147 16.853-5.717 18.859-5.142 17.429-2.858 19.435-1.43q32.576 0 74.581 19.435t53.995 45.717q12.565 30.294 12.565 57.707z m146.283 443.99v-548.566q0-68.01-48.278-116.288t-116.288-48.277H237.728q-68.01 0-116.288 48.277T73.163 109.717V658.283q0 68.01 48.277 116.288t116.288 48.277h548.565q68.011 0 116.288-48.277t48.278-116.288z"  horiz-adv-x="1024" />
      
      <glyph glyph-name="tupian" unicode="&#58980;" d="M829.866667-21.333333H194.133333C145.066667-21.333333 106.666667 17.066667 106.666667 66.133333V701.866667C106.666667 750.933333 145.066667 789.333333 194.133333 789.333333H832c46.933333 0 85.333333-38.4 85.333333-87.466666V64c0-46.933333-38.4-85.333333-87.466666-85.333333zM746.666667 597.333333m-85.333334 0a85.333333 85.333333 0 1 1 170.666667 0 85.333333 85.333333 0 1 1-170.666667 0ZM746.666667-21.333333l-183.466667 317.866666L379.733333-21.333333zM108.8 53.333333c6.4-42.666667 40.533333-74.666667 85.333333-74.666666h369.066667L313.6 409.6 108.8 53.333333z"  horiz-adv-x="1024" />
      
      <glyph glyph-name="shipin" unicode="&#58889;" d="M898.71 189.32c-31.08 0-56.5 25.43-56.5 56.5V494.79c0 31.08 25.43 56.5 56.5 56.5 31.08 0 56.5-25.43 56.5-56.5v-248.97c0-31.08-25.42-56.5-56.5-56.5zM691.58 9.28H217.32c-82.84 0-150.63 67.78-150.63 150.63V594.76c0 82.84 67.78 150.63 150.63 150.63h474.27c82.84 0 150.63-67.78 150.63-150.63V159.9c-0.01-82.84-67.79-150.62-150.64-150.62zM430.71 231.14l128.62 128.62c13.93 13.93 13.93 36.52 0 50.45L430.71 538.83c-22.47 22.47-60.9 6.56-60.9-25.22v-257.24c0-31.79 38.42-47.71 60.9-25.23z"  horiz-adv-x="1024" />
      
      <glyph glyph-name="qiqiaoban" unicode="&#59194;" d="M116.1 779.4v-793.9H910V779.4H116.1z m739.8-739.8H170.2V725.3h685.7v-685.7zM910-32.1H116.1c-9.7 0-17.6 7.9-17.6 17.6V779.4c0 9.7 7.9 17.6 17.6 17.6H910c9.7 0 17.6-7.9 17.6-17.6v-793.9c0-9.8-7.9-17.6-17.6-17.6z m-776.3 35.2h758.7V761.8H133.7v-758.7zM855.9 22H170.2c-9.7 0-17.6 7.9-17.6 17.6V725.3c0 9.7 7.9 17.6 17.6 17.6h685.7c9.7 0 17.6-7.9 17.6-17.6v-685.7c0-9.7-7.9-17.6-17.6-17.6z m-668.1 35.2h650.5V707.7H187.8v-650.5zM513 382.4l342.9-342.8H170.2zM855.9 22H170.2c-7.1 0-13.5 4.3-16.3 10.9-2.7 6.6-1.2 14.1 3.8 19.2l342.8 342.8c6.9 6.9 18 6.9 24.9 0L868.3 52c5-5 6.5-12.6 3.8-19.2-2.7-6.5-9.1-10.8-16.2-10.8z m-643.2 35.2h600.7L513 357.5 212.7 57.2zM513.9 382.5l342.8 342.9v-685.7zM856.7 22.1c-4.6 0-9.1 1.8-12.4 5.2L501.4 370.1c-6.9 6.9-6.9 18 0 24.9l342.8 342.8c5 5 12.6 6.6 19.2 3.8 6.6-2.7 10.9-9.1 10.9-16.3v-685.7c0-7.1-4.3-13.5-10.9-16.3-2.1-0.8-4.4-1.2-6.7-1.2zM538.8 382.5l300.3-300.3V682.9L538.8 382.5zM341.38 547.089L509.53 378.94 341.38 210.792 173.233 378.94zM341.4 193.2c-4.5 0-9 1.7-12.4 5.2L160.8 366.5c-3.3 3.3-5.2 7.8-5.2 12.4 0 4.7 1.9 9.1 5.2 12.4L329 559.5c6.9 6.9 18 6.9 24.9 0L522 391.4c3.3-3.3 5.2-7.8 5.2-12.4 0-4.7-1.9-9.1-5.2-12.4L353.9 198.3c-3.5-3.4-8-5.1-12.5-5.1zM198.2 378.9l143.3-143.3 143.3 143.3-143.4 143.3-143.2-143.3zM344.9 550.5L513 382.4l168.2 168.1zM513 364.8c-4.5 0-9 1.7-12.4 5.2L332.4 538.1c-5 5-6.5 12.6-3.8 19.2s9.1 10.9 16.3 10.9h336.3c7.1 0 13.5-4.3 16.3-10.9 2.7-6.6 1.2-14.1-3.8-19.2L525.5 370c-3.5-3.5-8-5.2-12.5-5.2zM387.4 532.9L513 407.3l125.6 125.6H387.4zM170.2 39.2l168.1 168.1-168.1 168.2zM170.2 21.6c-2.3 0-4.6 0.4-6.7 1.3-6.6 2.7-10.9 9.1-10.9 16.3V375.5c0 7.1 4.3 13.5 10.9 16.3 6.6 2.8 14.1 1.2 19.2-3.8l168.1-168.1c6.9-6.9 6.9-18 0-24.9L182.6 26.7c-3.3-3.3-7.8-5.1-12.4-5.1zM187.8 333v-251.3l125.6 125.6L187.8 333zM520 725.3H170.2v-349.8zM170.2 357.9c-2.3 0-4.6 0.4-6.7 1.3-6.6 2.7-10.9 9.1-10.9 16.3V725.3c0 9.7 7.9 17.6 17.6 17.6H520c7.1 0 13.5-4.3 16.3-10.9 2.7-6.6 1.2-14.1-3.8-19.2L182.6 363c-3.3-3.3-7.8-5.1-12.4-5.1z m17.6 349.8V418l289.7 289.7H187.8zM513.9 725.3L345.1 550.4l336.1 0.1 175.5 174.9zM345.1 532.8c-7.1 0-13.4 4.2-16.2 10.7-2.8 6.5-1.4 14 3.5 19.1l168.8 174.9c3.3 3.4 7.9 5.4 12.7 5.4l342.8 0.1c7.1 0 13.6-4.3 16.3-10.9 2.7-6.6 1.2-14.2-3.9-19.2L693.6 538.1c-3.3-3.3-7.8-5.1-12.4-5.1l-336.1-0.2z m176.2 174.9L386.6 568l287.4 0.1 140.2 139.6H521.3z"  horiz-adv-x="1024" />
      
      <glyph glyph-name="xiugai" unicode="&#58928;" d="M414.72 172.8c-11.733333-11.733333-27.733333-18.56-44.16-18.773333l-164.266667-2.56c-18.986667 1.706667-33.92 16.64-35.626666 35.626666l2.56 164.266667c0.213333 16.64 7.04 32.426667 18.773333 44.16L498.56 702.08l222.72-222.72L414.72 172.8zM749.226667 507.306667L526.293333 730.026667l41.813334 41.813333a85.504 85.504 0 0 0 120.746666 0l102.186667-102.186667a85.504 85.504 0 0 0 0-120.746666l-41.813333-41.6zM789.333333-28.8H234.666667c-35.413333 0-64 28.586667-64 64s28.586667 64 64 64h554.666666c35.413333 0 64-28.586667 64-64s-28.586667-64-64-64z"  horiz-adv-x="1024" />
      
      <glyph glyph-name="tuichu" unicode="&#58929;" d="M0 384c0 159.061333 0 238.549333 25.984 301.269333a341.333333 341.333333 0 0 0 184.746667 184.746667C273.450667 896 352.938667 896 512 896c159.018667 0 238.549333 0 301.269333-25.984a341.333333 341.333333 0 0 0 184.746667-184.746667C1024 622.549333 1024 543.061333 1024 384c0-159.018667 0-238.549333-25.984-301.269333a341.333333 341.333333 0 0 0-184.746667-184.746667C750.549333-128 671.018667-128 512-128c-159.061333 0-238.549333 0-301.269333 25.984a341.333333 341.333333 0 0 0-184.746667 184.746667C0 145.450667 0 224.981333 0 384zM763.306667 397.354667l-85.333334 106.666666A21.376 21.376 0 0 1 640 490.666667V426.666667h-170.666667a42.666667 42.666667 0 0 1 0-85.333334h170.624v-64a21.333333 21.333333 0 0 1 37.973334-13.312l85.333333 106.666667a21.12 21.12 0 0 1 0 26.624zM554.666667 213.333333H383.616A42.496 42.496 0 0 0 341.333333 256V512.384a42.496 42.496 0 0 0 42.666667 42.325333h170.666667a42.666667 42.666667 0 0 1 0 85.290667H341.333333a85.333333 85.333333 0 0 1-85.333333-85.333333v-341.333334a85.333333 85.333333 0 0 1 85.333333-85.333333h213.333334a42.666667 42.666667 0 0 1 0 85.333333z"  horiz-adv-x="1024" />
      
      <glyph glyph-name="fenleiorguangchangorqitatianchong" unicode="&#59005;" d="M886.951936 457.796608c-63.514624-63.514624-166.499328-63.514624-230.013952 0l-63.895552 63.900672c-63.519744 63.514624-63.519744 166.494208 0 230.013952l63.895552 63.895552c63.515648 63.514624 166.499328 63.514624 230.013952 0l63.895552-63.895552c63.519744-63.519744 63.519744-166.499328 0-230.013952L886.951936 457.796608zM444.669952 591.522816c0-89.827328-72.81664-162.644992-162.644992-162.644992l-90.361856 0c-89.827328 0-162.644992 72.81664-162.644992 162.644992l0 90.361856c0 89.827328 72.81664 162.644992 162.644992 162.644992l90.361856 0c89.827328 0 162.644992-72.81664 162.644992-162.644992L444.669952 591.522816zM979.771392 67.805184c0-89.822208-72.81664-162.644992-162.644992-162.644992l-90.361856 0c-89.827328 0-162.644992 72.82176-162.644992 162.644992l0 90.366976c0 89.822208 72.81664 162.644992 162.644992 162.644992l90.361856 0c89.827328 0 162.644992-72.82176 162.644992-162.644992L979.771392 67.805184zM444.669952 67.805184c0-89.822208-72.81664-162.644992-162.644992-162.644992l-90.361856 0c-89.827328 0-162.644992 72.82176-162.644992 162.644992l0 90.366976c0 89.822208 72.81664 162.644992 162.644992 162.644992l90.361856 0c89.827328 0 162.644992-72.82176 162.644992-162.644992L444.669952 67.805184z"  horiz-adv-x="1024" />
      
      <glyph glyph-name="yuyin" unicode="&#58983;" d="M529.75 98h-34.302c-56.849 0-112.513 19.889-156.738 56.002-43.553 35.564-74.102 85.137-86.017 139.585-3.542 16.186 6.708 32.178 22.893 35.72 16.188 3.539 32.178-6.708 35.72-22.894C330.126 220.417 407.569 158 495.448 158h34.302c87.879 0 165.321 62.417 184.141 148.413 3.543 16.187 19.542 26.431 35.72 22.894 16.186-3.542 26.436-19.534 22.894-35.72-11.916-54.448-42.464-104.021-86.017-139.585C642.263 117.889 586.599 98 529.75 98zM512.599 243c-80.3 0-146 65.7-146 146V610c0 80.3 65.7 146 146 146s146-65.7 146-146v-221c0-80.3-65.7-146-146-146zM512.599 213c-97.047 0-176 78.953-176 176V610c0 97.047 78.953 176 176 176s176-78.953 176-176v-221c0-97.047-78.953-176-176-176z m0 513c-63.963 0-116-52.038-116-116v-221c0-63.963 52.038-116 116-116s116 52.037 116 116V610c0 63.962-52.037 116-116 116zM512.599-12c-16.5 0-30 13.5-30 30V127c0 16.5 13.5 30 30 30s30-13.5 30-30v-109c0-16.5-13.5-30-30-30zM650.599-12h-276c-16.5 0-30 13.5-30 30s13.5 30 30 30h276c16.5 0 30-13.5 30-30s-13.5-30-30-30z"  horiz-adv-x="1024" />
      
      <glyph glyph-name="biaoqing" unicode="&#58894;" d="M512-83C263.472-83 62 118.472 62 367S263.472 817 512 817s450-201.472 450-450-201.472-450-450-450zM337 417c41.421 0 75 33.579 75 75s-33.579 75-75 75-75-33.579-75-75 33.579-75 75-75z m350 0c41.421 0 75 33.579 75 75s-33.579 75-75 75-75-33.579-75-75 33.579-75 75-75zM312 267c0-110.457 89.543-200 200-200s200 89.543 200 200H312z"  horiz-adv-x="1024" />
      
      <glyph glyph-name="group" unicode="&#58881;" d="M1024.256 340.928c0 44.352-51.904 87.648-121.376 110.624-3.2 1.056-23.168 10.08-10.688 48.128h-0.192c32.64 33.504 57.536 87.616 57.536 140.768 0 81.824-54.4 124.704-117.632 124.704s-117.312-42.88-117.312-124.672c0-53.44 24.736-107.648 57.504-141.152 12.8-33.536-10.048-45.984-14.816-47.744a316.16 316.16 0 0 1-46.944-21.312v30.592c0 44.352-57.696 87.648-127.168 110.624-3.168 1.056-23.168 10.08-10.688 48.128h-0.16c32.608 33.536 57.504 87.616 57.504 140.768 0 81.856-54.4 124.704-117.6 124.704s-117.312-42.848-117.312-124.704c0-53.44 24.736-107.648 57.536-141.152 12.8-33.504-10.08-45.984-14.816-47.712-66.208-23.968-121.888-67.552-121.888-110.624v-31.616a316.576 316.576 0 0 1-48.64 22.336c-4.768 1.76-27.648 14.208-14.88 47.744 32.768 33.504 57.6 87.712 57.6 141.152 0 81.824-54.112 124.672-117.376 124.672-63.2 0-117.6-42.88-117.6-124.672 0-53.152 24.928-107.232 57.472-140.768h-0.16c12.48-38.08-7.552-47.072-10.688-48.128-69.472-23.008-121.312-66.272-121.312-110.624v-205.312c0-0.416 0.192-0.736 0.224-1.152-0.032-0.832-0.224-1.664-0.224-2.464 0-111.264 125.664-206.816 305.504-249.024v62.112c0 50.784 64.512 96.896 128.48 120.032 0 0 6.816 2.784 10.208 10.144 2.72 6.048 2.528 13.696-0.64 22.784-35.84 37.568-58.848 94.816-58.848 146.56 0 93.056 63.936 134.688 127.296 134.688 63.52 0 127.616-41.632 127.616-134.688 0-51.136-22.88-108.064-58.464-145.76-6.912-22.592-0.256-31.744 5.024-33.664 61.792-20.448 133.984-64.192 133.984-120.128v-61.664c178.88 42.4 303.84 137.664 303.84 248.576 0 0.832-0.256 1.632-0.256 2.432 0 0.384 0.256 0.736 0.256 1.184v205.312z"  horiz-adv-x="1024" />
      
      <glyph glyph-name="xiaoxi" unicode="&#59020;" d="M512-21.333333a308.458667 308.458667 0 0 0-86.058667 9.152c-59.349333 17.301333-177.642667 4.373333-272.576-14.485334 0 0-8.192-1.344-8.704-1.344a42.282667 42.282667 0 0 0-41.408 52.522667c20.245333 91.733333 28.053333 200.746667 12.330667 274.581333A405.333333 405.333333 0 1 0 512-21.333333z m-172.992 277.333333h213.333333a32 32 0 1 1 0 64h-213.333333a32 32 0 0 1 0-64z m341.333333 234.666667h-341.333333a32 32 0 0 1 0-64h341.333333a32 32 0 1 1 0 64z"  horiz-adv-x="1024" />
      
      <glyph glyph-name="friend" unicode="&#58921;" d="M645.150118-82.160941H54.452706c-50.416941 0-38.159059 34.996706-37.948235 37.647059a399.450353 399.450353 0 0 0 129.505882 264.553411 445.741176 445.741176 0 0 0 64.963765 52.585412 298.345412 298.345412 0 0 0 47.917176 33.129412 237.176471 237.176471 0 0 0 55.024941 21.865412c2.831059 0.722824 5.812706 0.873412 8.704 1.475764a303.314824 303.314824 0 0 0-122.458353 117.458824 296.237176 296.237176 0 0 0-40.56847 149.052235 302.592 302.592 0 0 0 605.184 0 296.237176 296.237176 0 0 0-40.538353-149.052235 303.495529 303.495529 0 0 0-105.893647-107.218824c-5.481412-3.312941-10.631529-7.077647-16.293647-10.059294q29.665882-13.402353 75.926588-34.996706a298.616471 298.616471 0 0 0 50.748235-30.117647q-147.787294-20.329412-147.787294-183.205647a251.934118 251.934118 0 0 1 64.090353-163.117176z m0 0l184.350117 196.638117q44.664471 74.541176 97.129412 74.360471c42.616471 0 82.311529-32.587294 82.311529-101.074823a184.711529 184.711529 0 0 0-72.071529-136.192A1149.982118 1149.982118 0 0 0 829.500235-128a744.387765 744.387765 0 0 0-102.550588 79.570824 199.559529 199.559529 0 0 0-72.704 143.269647 86.196706 86.196706 0 0 0 85.594353 93.997176q49.995294 0 89.660235-74.360471z m0 0"  horiz-adv-x="1024" />
      
      <glyph glyph-name="shezhi" unicode="&#59065;" d="M968.117744 477.221763a88.734248 88.734248 0 0 0-81.960641 57.236977l-3.048123 7.450967a88.903589 88.903589 0 0 0 16.934017 98.555978 56.051596 56.051596 0 0 1 0 78.912519l-52.495453 53.172813a56.051596 56.051596 0 0 1-78.912518 0 89.242269 89.242269 0 0 0-98.725319-16.934017l-7.450967 3.217463a88.903589 88.903589 0 0 0-57.236977 81.791302A55.882256 55.882256 0 0 1 549.339507 896H474.152472a55.882256 55.882256 0 0 1-55.882255-55.882256 88.734248 88.734248 0 0 0-57.236977-81.791301l-7.450968-3.217463a89.072929 89.072929 0 0 0-98.555978 16.934017 56.051596 56.051596 0 0 1-78.912519 0l-52.664792-52.495453a56.051596 56.051596 0 0 1 0-78.912518 89.072929 89.072929 0 0 0 16.934017-98.555979c-1.185381-2.540103-2.201422-4.910865-3.217463-7.450967a88.734248 88.734248 0 0 0-81.791302-57.236977A55.882256 55.882256 0 0 1 0 421.847528v-74.679015a55.882256 55.882256 0 0 1 55.882256-55.882255 88.903589 88.903589 0 0 0 81.791301-57.236977c1.016041-2.540103 2.032082-5.080205 3.217463-7.450968a89.242269 89.242269 0 0 0-16.934017-98.725318 56.051596 56.051596 0 0 1 0-78.912519l53.003473-53.003473a56.051596 56.051596 0 0 1 78.912519 0 88.903589 88.903589 0 0 0 98.555978 16.934017l7.450967-3.048123a88.734248 88.734248 0 0 0 57.236977-81.960641 55.882256 55.882256 0 0 1 55.882256-55.882256h74.679015a55.882256 55.882256 0 0 1 55.882255 55.882256 89.072929 89.072929 0 0 0 57.236977 81.960641l7.450968 3.048123a89.242269 89.242269 0 0 0 98.725318-16.934017 56.051596 56.051596 0 0 1 78.912519 0l53.003472 53.003473a56.051596 56.051596 0 0 1 0 78.912519 89.242269 89.242269 0 0 0-16.934016 98.725318l3.048123 7.450968a89.072929 89.072929 0 0 0 81.960641 57.236977 55.882256 55.882256 0 0 1 55.882256 55.882255V421.847528a55.882256 55.882256 0 0 1-56.728957 55.374235z m-456.033074-338.680337a245.204564 245.204564 0 1 0 245.035224 245.373904 245.035224 245.035224 0 0 0-245.035224-245.035224zM911.727468 465.706631a77.727137 77.727137 0 0 0-71.800231 50.802051l-2.709443 6.604267a77.557797 77.557797 0 0 0 15.240615 86.363486 49.277989 49.277989 0 0 1 0 69.260129l-46.399206 45.721845a49.108649 49.108649 0 0 1-69.090789 0 77.727137 77.727137 0 0 0-86.363486-15.071275l-7.112287 2.540103a77.557797 77.557797 0 0 0-50.802051 71.630891 49.108649 49.108649 0 0 1-48.939308 48.939309H479.232677a49.108649 49.108649 0 0 1-48.939308-48.939309 77.557797 77.557797 0 0 0-50.802051-71.630891l-6.604267-2.709443a77.727137 77.727137 0 0 0-86.363486 15.071275 49.277989 49.277989 0 0 1-69.260129 0l-46.399206-46.399206a49.277989 49.277989 0 0 1 0-69.260129 77.727137 77.727137 0 0 0 15.071275-86.363486c0-2.201422-1.693402-4.402844-2.709442-6.604267a77.557797 77.557797 0 0 0-71.630892-50.80205 49.108649 49.108649 0 0 1-48.261948-48.092608v-65.534646a49.108649 49.108649 0 0 1 48.939309-48.939308 77.557797 77.557797 0 0 0 71.630891-50.802051c1.016041-2.201422 1.862742-4.402844 2.709443-6.604267a77.727137 77.727137 0 0 0-15.071275-86.363486 49.108649 49.108649 0 0 1 0-69.090788l46.399206-46.399207a49.277989 49.277989 0 0 1 69.260129 0 77.557797 77.557797 0 0 0 86.363486 15.240616l6.604267-2.709443a77.727137 77.727137 0 0 0 50.80205-71.800232 49.108649 49.108649 0 0 1 48.939309-48.939308h65.534645a49.108649 49.108649 0 0 1 48.939309 48.939308 77.727137 77.727137 0 0 0 50.802051 71.800232l6.604266 2.709443a77.557797 77.557797 0 0 0 86.363486-15.240616 49.108649 49.108649 0 0 1 69.090789 0l46.399206 46.399207a49.108649 49.108649 0 0 1 0 69.090788 77.557797 77.557797 0 0 0-15.240615 86.363486l1.524062 7.620308a77.727137 77.727137 0 0 0 71.800231 50.802051 49.108649 49.108649 0 0 1 48.939309 48.939308V416.767323a49.108649 49.108649 0 0 1-48.939309 48.939308z m-399.642798-296.514635a214.892674 214.892674 0 1 0 214.723334 214.723334 214.892674 214.892674 0 0 0-214.723334-214.723334z"  horiz-adv-x="1024" />
      
      <glyph glyph-name="shejiaotubiao-40" unicode="&#58950;" d="M512 822.72A438.72 438.72 0 1 1 950.72 384 438.72 438.72 0 0 1 512 822.72zM829.92 464c5.6-16-150.24-146.4-150.24-146.4s2.08-12.64 4.16-22.08c0 0-72.64-2.24-132.32 0-32 1.28-69.12 7.04-69.12 7.04L656 425.76a1005.44 1005.44 0 0 1-125.76 13.6 908 908 0 0 1-150.24-6.72c-6.4-1.76 44.8-1.6 103.04-6.88 40.8-3.68 94.56-13.44 94.56-13.44l-172.8-128s73.92-4.48 140.32-4.16c74.72 0 142.24 9.92 142.72 8 12.96-56.16 36.96-167.52 28-176-12.16-12.32-185.6 97.6-185.6 97.6S368 110.4 345.92 110.4a3.68 3.68 0 0 0-2.08 0c-10.72 8.8 35.52 206.72 35.52 206.72S222.72 448 229.12 464s208 30.24 208 30.24S512 682.24 529.6 682.24s92.8-188 92.8-188S824.32 480 829.92 464z"  horiz-adv-x="1024" />
      
      <glyph glyph-name="operation" unicode="&#59067;" d="M823.467 384H578.133V571.733c0 66.134-53.333 119.467-117.333 119.467s-117.333-53.333-117.333-119.467V275.2l-21.334 21.333c-46.933 46.934-121.6 46.934-168.533 2.134s-44.8-121.6 2.133-168.534L330.667-44.8c6.4-6.4 14.933-8.533 23.466-8.533 8.534 0 17.067 2.133 23.467 8.533 12.8 12.8 12.8 32 0 44.8L202.667 174.933c-21.334 21.334-23.467 57.6-2.134 76.8 21.334 21.334 55.467 19.2 76.8-2.133L352 174.933c12.8-12.8 32-12.8 44.8 0 6.4 6.4 8.533 14.934 8.533 23.467V569.6c0 29.867 23.467 55.467 53.334 55.467S512 599.467 512 569.6v-219.733c0-17.067 14.933-32 32-32h277.333c6.4 0 10.667-6.4 10.667-12.8v-326.4c0-17.067 14.933-32 32-32s32 14.933 32 32V309.333C898.133 349.867 864 384 823.467 384z m-556.8 181.333c17.066 0 32 14.934 32 32 0 87.467 72.533 160 160 160s160-72.533 160-160c0-17.066 14.933-32 32-32s32 14.934 32 32c0 123.734-100.267 224-224 224s-224-100.266-224-224c0-17.066 14.933-32 32-32z"  horiz-adv-x="1024" />
      
      <glyph glyph-name="kongjian" unicode="&#65816;" d="M517.5808 373.1456m-125.3376 0a125.3376 125.3376 0 1 1 250.6752 0 125.3376 125.3376 0 1 1-250.6752 0ZM969.984 373.1456a161.4848 161.4848 0 0 1-96.9216 147.2512 160.256 160.256 0 0 1-208.2304 208.1792 160.3584 160.3584 0 0 1-294.5536 0 160.3072 160.3072 0 0 1-208.1792-208.1792 160.3584 160.3584 0 0 1 0-294.5536 160.256 160.256 0 0 1 208.1792-208.1792 160.3584 160.3584 0 0 1 294.5536 0 160.3072 160.3072 0 0 1 208.2304 208.1792 161.4848 161.4848 0 0 1 96.9216 147.3024z m-452.4032-176.5888a176.5888 176.5888 0 1 0 176.5376 176.5888 176.7424 176.7424 0 0 0-176.5376-176.5888z"  horiz-adv-x="1024" />
      
      <glyph glyph-name="diqiu" unicode="&#59108;" d="M690.722704 887.937026c27.414111-25.688634 49.555036-53.489767 66.438903-83.371148-30.107144 11.723564-57.843773 8.062974-83.209888-10.965644-16.996749-12.691121-17.690164-26.172413-2.096373-40.476128 35.477084-32.364776 71.760466-31.558479 108.850144 2.418892 13.545796-78.581742-14.303715-135.135439-83.532407-169.644966-8.708012-4.354006-11.449423-10.159347-12.578239-19.189877l-20.157434-1.290076-52.409329 25.478997c-37.734717 29.671743-61.2786 70.905791-70.63165 123.686016 5.902097 95.788127 55.682896 153.567397 149.326273 173.353934z m-24.205047-206.718519c-0.387023 11.046274-11.304289 19.625278-24.398558 19.157625-13.078143-0.451527-23.382624-9.772324-22.995601-20.802472 0.387023-11.046274 11.320415-19.625278 24.398558-19.157625 13.078143 0.451527 23.382624 9.772324 22.995601 20.802472z m60.472303-37.267065a19.383389 19.383389 0 0 1-7.047039 14.335968 24.608196 24.608196 0 0 1-16.432341 5.644081c-12.739498-0.258015-22.866593-9.643317-22.624704-20.947605 0.112882-5.434444 2.644655-10.578621 7.047039-14.335968 4.41851-3.74122 10.320606-5.789215 16.448466-5.644081 12.723372 0.258015 22.850467 9.643317 22.608579 20.947605zM690.722704 887.937026c113.945944-5.482822 172.596015-64.390908 175.934086-176.740383-11.401045-75.259796-53.28013-123.847276-125.62113-145.778564a134.73229 134.73229 0 0 0-56.440816 1.290076c1.128816 9.030531 3.870227 14.835872 12.578239 19.189877 69.228692 34.509527 97.078203 91.063225 83.532407 169.644966 5.902097 23.979284-1.935114 40.314868-23.543883 49.02288-16.883867 29.88138-39.024793 57.682514-66.438903 83.371148zM757.161607 804.565878c21.608769-8.708012 29.44598-25.043596 23.543883-49.02288-37.089679-33.977371-73.373061-34.783668-108.850144-2.418892-15.593791 14.303715-14.900375 27.785007 2.096373 40.476128 25.366115 19.028618 53.102745 22.689208 83.209888 10.965644zM1297.380844 754.89796c2.676907-21.721651 3.386449-43.49168 2.096374-65.310086-3.386449-58.21467-81.113515-156.905468-112.559113-186.577212-225.763263-213.072143-481.79493-377.669688-768.078874-493.776508-124.331054-50.474215-229.79475-90.305305-347.836685-95.465609-9.143412-0.435401-14.513353-7.143795-16.125947-20.157434-138.360629 78.210845 68.212757 271.722213 145.939824 345.256533l64.503789 49.667918c11.933201-23.334246 14.835872-47.732804 8.708012-73.211801-33.219452-29.349224-109.817702-93.853014-116.5906-138.199369-3.225189-20.963732 5.740837-31.39722 26.930332-31.284338a376.895642 376.895642 0 0 1 161.581993 37.089679 2779.694053 2779.694053 0 0 1 653.100869 357.512254l77.243288 65.148827a380.846499 380.846499 0 0 1 107.882588 113.042891c20.415449 32.784051 11.288163 49.071258-27.414111 48.861621-56.553697-0.209637-110.688503-13.868315-162.38829-40.959907-25.26936 10.852763-44.08834 28.33329-56.440816 52.409329 114.703864 49.990437 234.519653 75.308174 359.447367 75.953212zM1297.380844 754.89796c225.924523-13.384536-51.603032-297.684989-104.818658-341.386306a61.43986 61.43986 0 0 1-32.251894-32.251894l-44.830134-34.509528c-204.477013-158.034284-426.04753-284.94549-664.711551-380.733617-126.104908-56.118297-258.079662-80.25884-395.892008-72.405504 1.612595 13.01364 6.982535 19.722034 16.125947 20.157434 118.041935 5.160303 223.505631 44.991393 347.836685 95.465609 286.283944 116.106821 542.31561 280.704366 768.078874 493.776508 31.445597 29.671743 109.172664 128.362541 112.559113 186.577212 1.290076 21.818407 0.580534 43.588436-2.096374 65.310086zM541.396431 714.583092c9.353049-52.780226 32.896933-94.014273 70.63165-123.686016-41.282425-5.966601 73.050542-83.532407-50.474215-106.915032-104.496139-19.673656-182.384465-56.602075-205.60583-167.871112-4.031487-19.351137 5.805341-40.637387 28.865446-29.671743 4.25725 2.031869 7.417936 6.531009 8.546752 12.094461 37.895976 186.254692 226.73082 91.434122 271.077176 211.733689 24.188921 3.66059 45.894446-0.59666 65.148827-12.739499 2.418892-152.551462-182.061946-62.084897-245.275659-184.803357-48.861621-94.659311-59.666005-146.101083-179.320535-157.873024-3.338071 24.833959-13.658677 44.991393-30.961819 60.472302 6.12786 25.478997 3.225189 49.877555-8.708012 73.211801l12.094461 113.849189c33.316207 151.583905 121.315502 255.644644 263.981758 312.198341zM866.65679 711.196643l55.795778-28.865446c3.225189-25.914397-2.160877-50.103319-16.125948-72.566763l-27.41411 9.35305a8.546752 8.546752 0 0 1-10.643125-5.160304c-22.366689-57.730892-64.568293-92.51456-126.588687-104.334879-6.031104 18.270698-6.240742 36.880042-0.645038 55.795778 72.341 21.931288 114.220085 70.518768 125.62113 145.778564zM922.452568 682.331197l15.480909-3.386449c12.352476-24.076039 31.171456-41.556566 56.440816-52.409329l65.148828-88.047672c-33.332333 5.047422-63.116958-1.886736-89.337749-20.802472l-18.867358-8.062974c-1.515839 36.00924-17.851424 63.100832-49.02288 81.274775l4.031486 18.867358c13.96507 22.463445 19.351137 46.652366 16.125948 72.566763zM1076.294106 505.590814l-16.770985 32.896933-65.148828 88.047672c51.699787 27.091592 105.834593 40.750269 162.38829 40.959907 38.702274 0.209637 47.82956-16.07757 27.414111-48.861621a380.846499 380.846499 0 0 0-107.882588-113.042891zM906.32662 609.764434l-4.031486-18.867358a411.308414 411.308414 0 0 0-71.276688-91.434122 18.30295 18.30295 0 0 1-5.805341-13.707055c3.547708-105.463696 105.624955 4.999044 126.104909 23.866402l18.867358 8.062974c4.289502-27.736629 13.916693-53.489767 28.865446-77.243288a2779.694053 2779.694053 0 0 0-653.100869-357.512254l-40.959906 71.921726c119.65453 11.771942 130.458914 63.213714 179.320535 157.873024 63.213714 122.71846 247.694552 32.251895 245.275659 184.803357l12.094461 12.094461c62.020394 11.820319 104.221998 46.603988 126.588687 104.334879a8.546752 8.546752 0 0 0 10.643125 5.160304l27.41411-9.35305zM612.028081 590.897076l52.409329-25.478997v-55.15074c-44.346355-120.299567-233.181199-25.478997-271.077176-211.733689-1.128816-5.563452-4.289502-10.062591-8.546752-12.094461-23.060105-10.965644-32.896933 10.320606-28.865446 29.671743 23.221364 111.269037 101.10969 148.197456 205.60583 167.871112 123.524757 23.382624 9.19179 100.948431 50.474215 106.915032zM902.295134 590.897076c31.171456-18.173943 47.507041-45.265534 49.02288-81.274775-20.479953-18.867358-122.5572-129.330098-126.104909-23.866402a18.30295 18.30295 0 0 0 5.805341 13.707055 411.308414 411.308414 0 0 1 71.276688 91.434122zM664.43741 565.418079l20.157434 1.290076c18.38358-4.402384 37.186435-4.837784 56.440816-1.290076-5.595704-18.915736-5.386066-37.52508 0.645038-55.795778l-12.094461-12.094461c-19.254381 12.142838-40.959906 16.400088-65.148827 12.739499V565.418079zM1059.523121 538.487747l16.770985-32.896933-77.243288-65.148827a201.62272 201.62272 0 0 0-28.865446 77.243288c26.22079 18.915736 56.005415 25.849894 89.337749 20.802472zM277.414673 402.384751l-12.094461-113.849189-64.503789-49.667918-40.959907 26.607814c63.536233 34.187008 82.564851 83.097007 57.085854 146.746121 17.303142 5.595704 37.460576 2.30601 60.472303-9.836828zM216.94237 412.221579c25.478997-63.649114 6.450379-112.559113-57.085854-146.746121-42.040345 72.679645-23.011727 121.589643 57.085854 146.746121zM1192.562186 413.511654c106.108734-125.78239 76.75951-192.172915-88.047672-199.15545l4.031487 25.156478c72.082985 5.805341 109.656442 91.272862 51.764291 141.747078a61.43986 61.43986 0 0 0 32.251894 32.251894zM1160.310292 381.25976c57.892151-50.474215 20.318694-135.941736-51.764291-141.747078 12.25572 33.977371 14.56173 69.712471 6.934157 107.23755l44.830134 34.509528zM1115.480158 346.750232c7.627573-37.52508 5.321563-73.260179-6.934157-107.23755l-4.031487-25.156478c-60.956081-194.156406-196.68818-298.652545-407.180172-313.488417-4.095991 44.507615 14.400471 69.825352 55.473259 75.953212 115.671421 17.303142 196.946195 76.920769 243.824325 178.836757 2.354388 5.160303 2.709159 10.578621 0.967557 14.997131-5.595704 13.868315-15.480909 17.141882-29.671744 9.836828-4.047613-2.064121-7.563069-6.20849-9.836827-11.610682-34.670787-79.984699-82.242332-112.720372-168.032372-136.102996-49.667918-13.545796-93.159598-37.621835-130.458914-72.244244 10.643125 42.088723-105.141177-26.769073-116.106822-32.090636l-92.724197 37.573458c238.664021 95.788127 460.234538 222.699333 664.711551 380.733617zM274.028224 215.323761c17.303142-15.480909 27.623748-35.638344 30.961819-60.472302l40.959906-71.921726a376.911768 376.911768 0 0 0-161.581993-37.089679c-21.189495-0.112882-30.155522 10.320606-26.930332 31.284338 6.772898 44.346355 83.371148 108.850145 116.5906 138.199369zM697.334342-99.132213c-13.223277-26.333672-28.446171-27.688252-45.636431-4.031487l7.901715 63.697493c37.299316 34.622409 80.790996 58.698448 130.458914 72.244244 85.79004 23.382624 133.361585 56.118297 168.032372 136.102996 2.273759 5.402192 5.789215 9.546561 9.836827 11.610682 14.190834 7.305054 24.076039 4.031487 29.671744-9.836828 1.741602-4.41851 1.386831-9.836828-0.967557-14.997131-46.878129-101.915987-128.152904-161.533615-243.824325-178.836757-41.072788-6.12786-59.56925-31.445597-55.473259-75.953212zM659.599626-39.466207l-7.901715-63.697493a321.164368 321.164368 0 0 0-108.205107 31.606857c10.965644 5.321563 126.749946 74.179358 116.106822 32.090636zM619.137938 679.568786a23.705143 19.996175 2 1 1 47.381404 1.654595 23.705143 19.996175 2 1 1-47.381404-1.654595ZM680.890934 642.98473a23.060105 20.479953 1.2 1 1 46.110094 0.965868 23.060105 20.479953 1.2 1 1-46.110094-0.965868Z"  horiz-adv-x="1392" />
      
    </font>
</defs>
</svg>
