<?xml version="1.0" standalone="no"?><!DOCTYPE svg PUBLIC "-//W3C//DTD SVG 1.1//EN" "http://www.w3.org/Graphics/SVG/1.1/DTD/svg11.dtd"><svg t="1740883561438" class="icon" viewBox="0 0 1024 1024" version="1.1" xmlns="http://www.w3.org/2000/svg" p-id="839" xmlns:xlink="http://www.w3.org/1999/xlink" width="200" height="200"><path d="M560.698809 892.115407c0 93.996508-72.090748 45.465702-72.090749 45.465702L176.454026 674.930929h-48.214565c-29.872596 0-54.06502-24.642459-54.06502-55.050232v-220.152276c0-30.407773 24.192424-55.038069 54.06502-55.03807h57.677464L488.64455 87.90279S560.698809 38.921949 560.698809 133.794201v758.321206m162.207224-235.53861c90.116476-73.367875 84.095737-212.489518 0-275.166019-33.022841-19.862357-54.052857 45.867085-54.052857 45.867085s84.095737 105.478483 0 183.444013c-16.529665 21.407072 15.009277 65.68079 54.052857 45.854921m45.003504-431.084916c-12.004989-10.715699-70.546033 29.045505-36.039293 64.196891 178.7004 151.345568 181.692525 293.520151 0 449.439048-27.038592 25.992564 9.000701 74.924753 36.039293 64.209053 247.774697-114.66163 237.277934-470.833957 0-577.844992m0 0z" fill="#FF8803" p-id="840"></path></svg>